<?xml version="1.0" standalone="no"?>
<!DOCTYPE svg PUBLIC "-//W3C//DTD SVG 20010904//EN"
 "http://www.w3.org/TR/2001/REC-SVG-20010904/DTD/svg10.dtd">
<svg version="1.0" xmlns="http://www.w3.org/2000/svg"
 width="498.000000pt" height="498.000000pt" viewBox="0 0 498.000000 498.000000"
 preserveAspectRatio="xMidYMid meet">
<metadata>
Created by potrace 1.14, written by Peter Selinger 2001-2017
</metadata>
<g transform="translate(0.000000,498.000000) scale(0.100000,-0.100000)"
fill="#000000" stroke="none">
<path d="M2480 4551 c-8 -5 -34 -11 -58 -15 -24 -3 -53 -15 -64 -26 -12 -11
-31 -19 -42 -19 -12 0 -66 -4 -121 -8 -78 -7 -103 -6 -113 4 -8 7 -18 11 -23
8 -5 -4 -9 -2 -9 3 0 6 37 13 83 16 186 15 222 18 227 23 8 8 -211 -6 -340
-22 -244 -30 -218 -30 -222 2 -3 24 -8 28 -40 31 -33 3 -37 1 -43 -28 -7 -30
-37 -56 -54 -45 -5 3 -12 -3 -16 -14 -6 -21 -31 -35 -40 -21 -3 4 -1 20 5 35
13 33 -7 43 -47 21 -16 -9 -22 -16 -13 -17 8 0 -3 -7 -25 -14 -39 -13 -39 -14
-10 -15 l30 -1 -35 -15 c-19 -8 -43 -13 -52 -11 -20 6 -91 -17 -122 -38 -11
-8 -27 -15 -36 -15 -8 0 -37 -14 -65 -31 -27 -17 -39 -27 -27 -24 19 6 23 3
20 -11 -2 -12 -34 -28 -108 -54 -58 -20 -127 -47 -154 -59 -27 -11 -54 -21
-60 -21 -14 1 68 44 164 87 72 31 85 48 15 19 -28 -12 -36 -12 -45 -1 -20 24
-69 26 -110 5 -34 -17 -60 -53 -47 -66 2 -2 34 9 71 25 97 44 80 23 -26 -32
-142 -73 -234 -133 -300 -196 -30 -28 -37 -42 -36 -73 0 -21 4 -41 9 -44 13
-8 11 -72 -3 -80 -6 -4 -17 1 -24 11 -8 10 -17 15 -21 11 -4 -4 -3 -10 3 -14
16 -11 22 -35 14 -57 -4 -13 0 -26 14 -40 20 -19 23 -26 31 -65 2 -8 4 -17 5
-20 1 -3 5 4 10 15 8 19 9 19 9 -2 1 -12 6 -25 11 -28 6 -3 10 -16 10 -28 0
-21 -1 -21 -24 5 -12 15 -26 25 -29 22 -14 -15 67 -229 83 -219 5 3 6 13 3 23
-6 15 -5 15 11 3 9 -8 15 -20 12 -27 -6 -16 19 -38 34 -29 5 3 10 -2 10 -13 0
-11 7 -23 15 -26 13 -5 15 0 10 28 -7 36 2 50 24 36 9 -5 12 -20 9 -41 -5 -30
7 -56 29 -62 4 -1 6 -14 4 -29 -1 -14 3 -29 9 -33 7 -4 9 1 4 19 -6 26 -7 26
53 27 30 1 50 26 33 42 -10 10 -12 9 -7 -5 3 -10 3 -19 -1 -22 -4 -3 -9 9 -10
25 -3 36 10 37 32 4 12 -18 24 -25 42 -23 18 2 29 -4 39 -22 19 -35 29 -63 26
-77 -1 -7 3 -13 9 -13 6 0 9 -4 6 -9 -3 -4 0 -16 7 -25 11 -15 14 -15 32 -1
19 14 19 16 2 29 -11 9 -14 17 -8 21 7 4 7 12 -1 25 -7 11 -9 22 -6 25 9 9
104 -21 142 -45 18 -11 36 -17 39 -14 3 4 9 -5 12 -19 7 -28 47 -47 96 -47 21
0 27 -4 23 -15 -4 -8 -1 -15 5 -15 6 0 11 5 11 10 0 6 8 5 20 -2 13 -9 19 -22
17 -43 -2 -28 0 -30 29 -28 41 3 88 -42 63 -60 -9 -7 -21 -22 -28 -34 -6 -13
-16 -23 -22 -23 -6 0 -7 5 -4 10 3 6 1 10 -5 10 -6 0 -8 5 -5 10 3 6 -1 13
-10 16 -9 4 -14 12 -11 19 2 6 0 18 -6 26 -8 11 -9 11 -4 -3 3 -12 1 -15 -10
-11 -8 3 -13 12 -10 19 8 21 -13 62 -35 67 -9 3 -26 -3 -37 -13 -18 -17 -19
-17 -30 1 -7 11 -18 19 -25 19 -8 0 -7 -4 3 -10 8 -5 11 -10 6 -10 -5 0 -19
11 -32 25 -13 14 -34 25 -46 25 -19 0 -28 10 -42 44 -10 25 -27 46 -37 49 -17
5 -18 1 -13 -35 4 -22 18 -51 31 -64 14 -14 22 -31 20 -39 -3 -7 1 -16 9 -19
23 -9 24 -8 24 18 0 30 24 40 42 19 11 -14 11 -16 -4 -11 -14 6 -15 4 -2 -20
18 -35 18 -62 -1 -62 -19 0 -19 -17 0 -54 8 -15 15 -37 15 -47 0 -25 -20 -35
-21 -10 -3 39 -18 84 -33 93 -13 9 -36 -10 -36 -29 0 -12 3 -13 13 -5 10 8 16
0 29 -34 15 -42 15 -44 -4 -44 -10 0 -30 7 -44 16 -21 14 -29 15 -49 4 -19
-10 -22 -16 -14 -26 7 -9 7 -19 -1 -34 -9 -17 -14 -19 -26 -9 -11 9 -14 7 -14
-10 0 -14 6 -21 19 -21 23 0 75 -79 91 -139 12 -45 1 -81 -25 -81 -8 0 -15 -4
-15 -10 0 -5 -16 -10 -36 -10 -22 0 -33 -4 -29 -10 14 -22 -17 -40 -68 -40
-43 0 -56 -5 -94 -36 -42 -35 -45 -35 -59 -18 -13 18 -14 17 -8 -10 4 -15 3
-31 -2 -35 -21 -15 -35 -53 -24 -66 8 -9 7 -17 -3 -26 -14 -15 -18 -61 -5 -53
4 3 8 14 8 25 0 10 6 19 14 19 17 0 9 -41 -11 -53 -21 -13 -15 -29 10 -25 16
2 21 9 20 26 -3 21 43 82 62 82 4 0 20 -9 37 -21 16 -12 32 -18 36 -14 4 4 1
10 -5 12 -23 8 -13 18 20 20 62 4 72 -3 86 -57 7 -28 11 -54 7 -57 -11 -12
-36 20 -31 38 9 29 -20 23 -33 -6 -6 -14 -9 -32 -6 -40 9 -21 -2 -19 -26 7
-15 16 -17 24 -8 29 9 6 7 10 -7 15 -11 4 -32 16 -47 26 -24 17 -28 17 -28 4
0 -9 -4 -16 -10 -16 -5 0 -10 -9 -10 -19 0 -25 -28 -54 -46 -47 -17 6 -19 -15
-3 -31 13 -13 4 -33 -15 -33 -7 0 -21 -9 -31 -20 -25 -27 -48 -27 -40 1 6 17
4 20 -6 13 -8 -5 -32 -9 -54 -9 -39 0 -40 -2 -54 -45 -8 -25 -18 -48 -24 -51
-5 -4 -8 -23 -5 -43 3 -25 0 -36 -9 -36 -7 0 -13 -4 -13 -9 0 -5 -10 -13 -21
-16 -19 -6 -21 -12 -16 -56 4 -27 2 -49 -3 -49 -5 0 -6 -8 -3 -17 5 -13 3 -15
-13 -9 -49 20 -87 27 -96 18 -12 -12 -2 -32 15 -32 7 -1 25 -19 40 -42 19 -27
32 -37 36 -29 5 8 13 6 26 -9 16 -18 16 -20 1 -26 -10 -4 -25 1 -38 12 -21 19
-21 19 -7 -3 11 -18 25 -28 72 -51 4 -2 7 4 7 14 0 16 1 16 19 0 15 -13 20
-14 23 -4 4 11 8 11 20 0 9 -7 35 -16 59 -20 34 -6 44 -12 45 -27 0 -11 -4
-26 -9 -33 -7 -8 -4 -19 8 -32 19 -21 7 -28 -13 -8 -9 9 -12 9 -12 1 0 -7 5
-15 11 -19 8 -5 6 -10 -5 -16 -26 -15 -18 -28 17 -28 25 0 42 -9 70 -38 21
-21 34 -42 30 -47 -5 -4 -3 -5 3 -2 7 4 18 -1 25 -10 8 -10 9 -14 2 -10 -6 4
-15 2 -18 -4 -7 -11 63 -76 77 -72 4 2 7 -2 5 -9 -1 -6 6 -14 15 -16 14 -2 16
1 12 15 -5 14 -2 14 14 -4 11 -13 24 -23 29 -23 5 0 33 -22 63 -50 30 -27 62
-52 72 -55 9 -4 20 -15 23 -26 4 -10 12 -19 19 -19 7 0 35 -14 62 -32 27 -17
65 -41 84 -53 19 -12 69 -44 110 -71 107 -71 270 -155 420 -217 86 -36 99 -45
82 -55 -17 -11 10 -35 57 -51 44 -14 53 -5 21 21 l-25 21 35 -7 c19 -3 37 -11
38 -16 2 -6 12 -10 22 -10 11 0 42 -9 70 -20 71 -28 180 -58 275 -76 44 -8
107 -21 140 -29 85 -20 168 -34 303 -50 65 -7 122 -14 127 -15 20 -4 168 0
164 4 -3 3 -85 14 -184 25 -216 25 -336 45 -430 72 -38 11 -118 33 -177 49
-60 16 -116 33 -125 39 -10 5 -60 23 -111 40 -93 31 -364 157 -414 192 -14 11
-70 42 -123 69 -125 64 -120 61 -104 72 10 7 8 8 -7 3 -15 -4 -33 5 -65 33
-24 21 -77 55 -118 76 -41 20 -88 48 -105 60 -50 37 -60 42 -53 23 9 -24 0
-21 -47 15 -47 36 -67 55 -49 44 7 -4 13 -2 13 4 0 6 -8 10 -18 8 -18 -3 -78
40 -152 109 -19 18 -30 33 -24 33 6 0 17 -7 24 -15 7 -8 17 -15 23 -15 5 0 -2
9 -17 21 -14 11 -30 18 -35 15 -4 -3 -26 10 -47 30 -22 20 -31 33 -22 30 10
-3 17 -2 17 2 -5 34 39 48 48 15 2 -10 15 -26 29 -36 21 -16 25 -16 30 -3 4
11 20 16 48 16 35 1 39 2 25 13 -14 11 -15 15 -4 31 8 10 12 23 11 29 -2 7 -1
9 1 5 3 -5 9 -8 14 -8 6 0 7 5 4 10 -13 21 60 5 82 -18 12 -12 28 -21 35 -20
8 2 14 -9 16 -24 2 -16 4 -28 5 -28 1 0 33 7 71 14 38 8 73 13 77 10 4 -2 12
2 16 11 7 12 12 13 25 3 9 -7 19 -23 23 -35 6 -20 3 -23 -24 -23 -21 0 -31 -5
-31 -16 0 -8 -13 -20 -30 -25 -26 -10 -30 -16 -30 -50 0 -27 4 -39 13 -37 6 2
39 -18 73 -44 41 -31 77 -50 110 -57 93 -19 125 -29 145 -46 18 -17 19 -17 38
6 l19 24 20 -25 c11 -14 23 -39 26 -56 5 -24 19 -39 58 -63 48 -30 57 -32 132
-30 121 3 122 3 140 -36 20 -41 31 -46 22 -10 -6 25 10 32 26 10 4 -5 8 0 8
11 0 12 7 24 15 28 18 7 21 -20 3 -28 -10 -5 -10 -7 0 -12 6 -3 12 -14 12 -23
0 -14 -7 -17 -27 -15 -26 3 -26 3 -4 -4 13 -4 29 -16 35 -27 12 -21 37 -44 49
-45 14 0 7 21 -10 27 -31 11 -42 34 -30 60 6 13 15 23 21 23 7 0 7 3 1 8 -13
9 -32 49 -44 92 -5 19 -10 27 -10 18 -1 -10 -6 -18 -13 -18 -6 0 -8 3 -5 7 4
3 2 12 -3 18 -7 9 -5 16 6 26 13 11 17 10 25 -2 5 -8 9 -23 10 -34 0 -18 2
-17 12 4 9 19 9 25 -1 29 -18 6 -15 71 3 78 8 4 15 13 15 21 0 11 5 10 25 -4
13 -10 25 -23 25 -29 0 -13 50 -36 71 -34 34 5 51 -3 99 -50 29 -28 56 -47 63
-43 8 5 8 8 -1 11 -7 2 -12 10 -12 18 0 9 -4 13 -9 9 -5 -3 -19 8 -31 25 -18
25 -19 30 -6 30 9 0 16 4 16 9 0 5 28 13 63 18 54 7 62 11 65 31 2 12 10 22
18 22 23 0 13 43 -13 55 -12 5 -24 18 -27 29 -4 14 -2 16 7 7 16 -16 27 -14
27 6 0 15 1 15 19 -1 12 -11 16 -25 13 -41 -2 -15 0 -25 7 -25 7 0 9 -5 5 -12
-5 -8 0 -9 17 -5 13 4 34 7 46 7 16 0 21 6 20 20 -1 11 -4 20 -7 20 -14 0 -7
39 7 45 24 9 37 -11 35 -50 -2 -25 1 -35 12 -35 8 0 27 -5 43 -12 15 -6 39
-10 53 -9 28 3 63 20 42 21 -8 0 -10 5 -6 12 9 15 13 68 6 86 -2 7 -11 11 -19
8 -8 -3 -11 -2 -8 3 3 6 -3 14 -12 20 -17 10 -17 10 -1 11 10 0 27 -10 39 -22
17 -18 21 -19 16 -5 -7 20 22 24 54 7 11 -6 19 -7 19 -1 0 11 -84 51 -108 51
-10 0 -22 3 -26 7 -4 4 -25 6 -46 4 -32 -2 -40 1 -40 14 0 15 -1 15 -16 0 -9
-9 -23 -14 -31 -11 -18 7 -163 -24 -163 -35 0 -5 -7 -6 -15 -3 -8 4 -15 1 -15
-5 0 -8 -7 -8 -24 0 -27 13 -25 42 5 72 16 15 19 15 19 2 0 -18 5 -19 30 -5
13 7 21 7 25 0 13 -21 95 40 95 72 0 10 5 18 12 18 21 0 -2 13 -28 16 -20 2
-24 0 -15 -9 16 -16 14 -30 -5 -23 -11 4 -18 -1 -21 -14 -8 -30 -22 -24 -20 7
2 21 -2 28 -15 27 -10 -1 -18 2 -18 7 0 5 5 9 10 9 6 0 10 7 10 16 0 9 5 12
13 8 9 -5 9 -4 1 5 -6 7 -24 13 -40 14 -25 2 -29 7 -30 32 -1 38 -6 58 -19 67
-5 4 -2 10 8 14 9 3 17 12 17 20 0 7 12 16 28 20 15 3 37 10 50 15 13 5 36 9
52 9 49 0 78 17 100 60 12 23 38 51 63 67 23 14 47 33 54 42 23 30 46 85 37
88 -5 2 18 32 51 68 58 61 62 64 112 67 33 2 53 8 53 15 0 7 -7 10 -15 7 -8
-4 -23 -3 -32 2 -10 4 -27 8 -38 9 -11 1 -31 2 -44 3 -19 2 -22 6 -17 26 6 24
5 24 -39 20 -25 -3 -45 -1 -45 4 0 10 67 32 99 32 23 0 28 19 9 38 -9 9 -9 12
0 12 6 0 9 7 6 15 -3 7 6 29 20 48 29 38 32 52 12 60 -19 8 -36 -12 -36 -42
-1 -30 -42 -81 -65 -81 -27 0 -16 36 27 90 40 50 40 52 13 35 -46 -29 -75 -57
-100 -96 -16 -24 -34 -38 -53 -42 -17 -3 -39 -16 -50 -28 -22 -23 -41 -19 -41
9 0 9 -1 24 -3 32 -4 22 22 129 32 135 6 4 4 14 -3 25 -15 26 2 56 31 53 13
-2 23 5 27 17 4 11 15 20 25 20 10 0 27 11 38 25 11 14 27 25 35 25 15 0 47
-37 73 -84 6 -11 17 -22 25 -24 10 -4 9 0 -3 15 -10 11 -18 24 -18 30 0 5 -9
18 -20 28 -11 10 -20 31 -20 46 0 15 -4 31 -10 34 -15 9 -12 36 7 57 16 18 15
19 -5 34 -27 19 -29 38 -3 29 10 -3 24 1 31 10 7 8 19 15 26 15 19 0 18 -39
-1 -46 -19 -8 -20 -44 -1 -44 21 0 28 -17 17 -38 -5 -10 -8 -28 -5 -39 5 -18
10 -19 47 -12 57 11 67 11 67 -2 0 -6 9 -24 20 -39 l20 -28 -25 -48 c-25 -47
-32 -84 -17 -84 5 0 7 -13 4 -28 -7 -52 9 -56 274 -68 171 -8 205 -4 197 25
-3 13 2 20 19 24 35 10 38 9 38 -16 0 -12 9 -40 20 -62 11 -22 20 -41 20 -42
0 -2 -15 -4 -32 -4 -24 -1 -18 -4 22 -10 30 -5 57 -14 60 -20 4 -6 15 -6 31 0
l24 10 -25 1 c-29 0 -56 15 -43 23 5 3 28 6 51 5 30 0 42 -5 42 -15 0 -8 4
-12 10 -8 5 3 7 12 3 21 -3 8 2 21 12 28 10 7 15 18 11 24 -4 7 -5 12 -2 12 3
0 10 -9 16 -19 7 -15 6 -23 -5 -34 -12 -13 -12 -17 -1 -27 20 -15 49 18 65 73
7 23 25 54 39 70 23 24 25 31 15 57 -13 34 -11 37 12 14 15 -15 18 -15 39 5
25 23 71 28 79 9 4 -10 8 -9 16 2 9 12 11 12 16 -2 6 -15 36 -15 33 0 -2 22 4
32 22 32 11 0 20 5 20 12 0 7 16 -5 35 -26 19 -21 35 -42 35 -47 0 -5 5 -9 10
-9 6 0 10 4 10 9 0 5 3 16 6 24 3 8 -1 21 -8 28 -17 19 -18 59 -1 59 8 0 23
-21 34 -47 l21 -48 14 34 c8 18 12 37 9 41 -3 5 -1 10 4 12 13 4 15 28 7 63
-15 60 -18 61 -37 18 -19 -46 -35 -60 -19 -18 26 68 60 109 73 87 2 -4 2 -1 1
6 -2 7 1 21 8 31 6 11 8 26 3 37 -11 25 -6 67 9 77 8 6 8 10 -1 14 -7 2 -13 8
-13 12 0 9 69 31 99 31 14 0 21 6 21 19 0 15 -8 21 -32 23 -26 2 -34 8 -36 26
-3 20 0 22 25 17 49 -11 56 -10 60 3 3 6 -2 12 -10 12 -26 0 -44 42 -39 93 4
41 7 47 27 47 13 0 25 7 29 15 3 8 16 15 29 15 14 0 30 7 37 15 7 8 17 15 22
15 10 0 63 37 90 63 10 9 23 17 29 17 7 0 18 8 25 18 17 22 41 8 67 -38 15
-27 16 -35 5 -42 -9 -7 -7 -8 7 -6 16 3 22 -5 30 -36 8 -31 17 -43 43 -53 l32
-13 0 200 c0 110 -3 200 -7 200 -5 0 -44 34 -88 76 -175 166 -368 314 -409
314 -14 0 -26 5 -26 10 0 6 -4 10 -10 10 -5 0 -10 -9 -10 -20 0 -16 -6 -20
-29 -18 -17 1 -38 -5 -49 -15 -27 -24 -39 -21 -78 18 -32 33 -74 47 -74 25 0
-5 6 -10 13 -10 19 0 42 -51 27 -60 -7 -4 -10 -22 -8 -39 3 -37 -16 -55 -43
-40 -14 7 -17 5 -14 -9 1 -10 -3 -26 -10 -35 -12 -17 -14 -17 -22 -2 -8 14
-13 14 -46 0 -20 -8 -37 -22 -37 -30 0 -8 -7 -18 -16 -23 -8 -5 -17 -20 -18
-35 -2 -14 -15 -39 -29 -56 -14 -18 -30 -55 -37 -86 -13 -61 -27 -77 -45 -51
-7 9 -17 16 -21 14 -5 -2 -24 3 -41 11 -32 13 -44 43 -23 56 6 3 10 18 10 32
0 19 -3 23 -12 16 -24 -18 -47 -23 -42 -9 7 17 -18 27 -37 15 -18 -11 -99 -12
-99 0 0 5 -9 7 -20 4 -33 -9 -23 -21 40 -50 56 -25 83 -58 43 -51 -14 2 -17
-3 -15 -27 2 -16 9 -41 16 -55 11 -23 10 -26 -6 -26 -10 0 -18 4 -18 8 0 13
-18 9 -34 -8 -23 -23 -11 -33 28 -24 26 6 38 4 50 -8 14 -14 17 -12 31 21 8
20 22 37 30 37 8 0 15 9 15 20 0 11 3 20 6 20 11 0 33 -34 34 -51 0 -29 53
-34 71 -6 3 5 9 2 12 -6 7 -19 -11 -35 -52 -47 -25 -7 -31 -5 -36 11 -4 10
-11 19 -16 19 -6 0 -7 -4 -4 -10 3 -6 -1 -7 -9 -4 -9 3 -16 2 -16 -4 0 -14
-46 -21 -86 -12 -19 4 -36 4 -39 0 -5 -8 -53 -5 -62 3 -18 19 35 67 73 67 7 0
10 8 7 20 -4 14 -11 19 -23 15 -12 -4 -19 1 -23 16 -4 16 -11 20 -26 16 -12
-3 -19 0 -18 7 1 6 -2 10 -8 9 -5 -1 -27 -4 -49 -8 -36 -7 -38 -7 -27 13 13
25 14 35 2 28 -5 -4 -12 0 -14 6 -3 7 -6 0 -7 -17 -2 -19 -4 -23 -7 -12 -4 14
-8 16 -19 6 -8 -6 -14 -17 -14 -25 0 -22 -41 -84 -56 -84 -8 0 -23 19 -34 43
-20 45 -81 117 -100 117 -16 0 -42 28 -36 39 3 5 24 5 48 0 42 -8 44 -7 79 31
20 22 42 40 48 40 12 0 14 10 11 55 -2 31 -16 55 -31 55 -5 0 -9 -7 -9 -16 0
-8 -5 -12 -10 -9 -6 4 -8 11 -4 16 3 6 -4 7 -19 4 -19 -5 -33 1 -58 24 -33 30
-33 32 -15 46 16 12 17 18 7 28 -13 13 -71 17 -71 4 0 -5 -4 -5 -10 -2 -5 3
-10 -1 -10 -10 0 -22 -30 -66 -41 -60 -4 3 -17 -2 -28 -12 -15 -12 -17 -19 -8
-25 22 -14 -64 -39 -154 -45 -83 -6 -89 -5 -89 13 0 12 -14 27 -36 39 -47 25
-72 62 -95 143 -21 74 -24 118 -9 127 6 4 8 11 5 16 -4 5 -3 15 2 22 4 6 9 38
10 70 1 38 9 70 23 91 11 19 20 51 20 72 0 22 3 49 6 62 6 20 11 22 38 15 17
-4 49 -6 70 -5 31 1 44 -4 63 -24 18 -20 27 -23 37 -15 10 8 30 9 63 4 40 -7
48 -12 48 -30 1 -31 12 -38 20 -14 6 20 18 26 40 21 6 -1 33 -2 60 -1 62 1
169 -33 136 -44 -25 -8 -27 -18 -5 -39 16 -17 46 -20 78 -7 18 7 18 8 -5 25
-24 18 -23 18 39 11 42 -4 89 -18 135 -41 39 -19 76 -34 84 -34 7 0 13 -4 13
-10 0 -5 -11 -10 -24 -10 -20 0 -24 -5 -23 -26 2 -21 15 -31 89 -65 49 -21 92
-39 98 -39 6 0 8 12 5 28 -4 27 -37 62 -59 62 -7 0 -27 11 -46 25 -29 22 -31
25 -13 25 12 0 25 -4 28 -10 3 -5 15 -10 26 -10 11 0 22 -7 25 -15 4 -8 14
-15 23 -15 18 0 147 -53 232 -95 29 -15 49 -22 44 -16 -6 6 -31 21 -57 34 -35
18 -44 27 -36 35 8 8 -6 19 -55 42 -75 34 -85 37 -66 14 12 -15 11 -16 -11 -9
-14 4 -49 18 -78 31 -29 13 -55 24 -58 24 -3 0 -20 6 -37 14 -18 8 -59 23 -92
34 -33 11 -94 32 -135 47 -85 31 -173 56 -210 60 -14 2 -41 8 -60 14 -43 14
-265 55 -380 71 -47 6 -91 16 -97 22 -27 22 -11 29 50 24 61 -5 61 -5 -18 10
-44 8 -117 14 -161 14 -64 0 -83 3 -88 15 -6 17 -23 19 -46 6z m-574 -70 c-9
-14 -65 -34 -81 -27 -26 9 -17 25 18 29 60 7 68 7 63 -2z m509 -21 c3 -5 -1
-10 -10 -10 -9 0 -13 5 -10 10 3 6 8 10 10 10 2 0 7 -4 10 -10z m-715 -14 c0
-3 -4 -8 -10 -11 -5 -3 -10 -1 -10 4 0 6 5 11 10 11 6 0 10 -2 10 -4z m619
-26 c-8 -3 -14 -12 -14 -20 0 -10 -10 -15 -30 -15 -19 0 -29 5 -27 13 3 17
-37 15 -44 -3 -8 -21 -19 -19 -21 5 -2 19 29 36 46 26 5 -3 14 0 20 8 9 11 19
12 47 3 21 -6 31 -13 23 -17z m172 10 c21 -17 22 -21 9 -30 -21 -14 -43 -12
-66 5 -19 14 -18 14 4 15 26 0 30 17 5 23 -14 4 -14 5 3 6 12 0 32 -8 45 -19z
m-96 -10 c-3 -5 -1 -10 5 -10 6 0 9 -4 6 -8 -6 -11 -66 -3 -66 8 0 5 8 6 19 3
10 -3 22 0 25 6 4 6 9 11 12 11 3 0 2 -4 -1 -10z m-985 -46 c-41 -14 -82 -34
-92 -45 -18 -22 -28 -24 -28 -8 0 14 30 38 48 39 8 0 28 6 45 14 45 20 59 24
82 25 11 0 -14 -11 -55 -25z m1096 -31 c-4 -13 5 -24 33 -40 32 -19 40 -30 46
-63 4 -25 12 -40 21 -40 9 0 12 -4 9 -10 -8 -12 -43 9 -49 30 -4 12 -3 -7 4
-69 0 -2 6 -1 14 2 7 3 19 0 26 -6 10 -9 12 -9 8 3 -3 8 4 24 14 35 19 20 19
19 13 -40 -6 -57 -5 -61 19 -71 15 -7 28 -8 34 -2 13 13 15 -105 2 -153 -6
-22 -14 -39 -18 -39 -4 0 -18 -3 -31 -7 -24 -6 -25 -6 -3 57 4 11 2 12 -7 4
-18 -17 -58 -5 -65 19 -3 12 -3 32 1 45 5 22 3 24 -18 18 -13 -3 -18 -3 -11 0
16 8 15 29 -3 44 -11 9 -15 9 -15 1 0 -6 -8 -23 -17 -38 -17 -26 -25 -63 -13
-63 4 0 5 -14 2 -30 -3 -18 3 -40 13 -56 13 -21 14 -28 4 -34 -8 -6 -5 -9 12
-12 14 -2 33 4 46 16 25 21 43 15 24 -7 -15 -19 -4 -47 18 -47 10 0 39 -16 64
-36 34 -27 47 -44 47 -62 0 -14 7 -34 16 -43 9 -10 17 -30 17 -44 0 -14 5 -25
12 -25 19 0 27 -30 10 -36 -24 -9 -19 -37 5 -29 11 3 29 0 40 -8 17 -12 18
-16 5 -34 -8 -11 -13 -22 -12 -25 1 -2 -5 4 -15 14 -21 23 -35 23 -43 -2 -3
-11 -11 -20 -16 -20 -5 0 -13 -8 -16 -17 -4 -10 -17 -32 -30 -50 -19 -25 -23
-39 -18 -65 6 -30 3 -36 -19 -46 -32 -14 -46 3 -20 23 11 8 15 14 9 14 -15 0
-45 -25 -45 -37 0 -6 -18 -17 -40 -23 -50 -15 -70 -36 -44 -45 11 -4 27 -14
36 -21 9 -8 21 -12 27 -9 11 7 41 -32 41 -54 -1 -12 -3 -12 -11 3 -12 21 -31
23 -23 2 6 -14 -6 -20 -29 -16 -6 1 -5 -24 2 -58 1 -2 8 2 16 9 20 17 33 4 14
-14 -22 -21 -82 -28 -103 -13 -15 11 -16 17 -7 35 9 18 8 21 -12 24 -17 2 -21
9 -19 29 2 20 -2 28 -18 32 -11 3 -20 9 -19 14 5 26 -3 53 -15 53 -8 0 -17 6
-20 13 -5 9 -7 9 -12 -2 -30 -66 -128 -69 -194 -6 l-25 24 -29 -35 c-15 -19
-30 -51 -32 -71 -5 -39 -20 -73 -33 -73 -5 0 -6 41 -3 90 4 79 3 90 -12 90
-16 0 -18 -3 -21 -55 -1 -16 -3 -37 -4 -46 -1 -22 -61 -79 -82 -79 -9 0 -22 7
-29 15 -9 11 -9 15 -1 15 7 0 9 5 5 11 -3 6 -2 14 3 18 6 3 13 18 17 34 7 30
-9 37 -34 15 -8 -7 -1 2 15 20 22 24 36 32 53 29 26 -5 43 20 22 33 -7 4 -9
13 -6 19 9 14 0 14 -25 0 -11 -5 -17 -14 -14 -19 3 -5 1 -11 -5 -15 -5 -3 -10
0 -10 7 0 9 -3 9 -10 -2 -5 -8 -10 -13 -10 -10 -1 3 -2 42 -4 88 -3 70 -1 84
14 92 21 11 94 -13 98 -33 2 -9 10 -13 23 -10 10 3 19 0 19 -6 0 -6 5 -11 10
-11 6 0 10 11 10 25 0 18 5 25 20 25 11 0 23 6 26 14 3 9 17 12 41 9 35 -4 36
-3 21 14 -10 12 -13 25 -8 38 5 11 9 27 9 35 0 12 -2 12 -13 -2 -7 -10 -21
-18 -30 -18 -9 0 -16 -4 -16 -10 0 -5 5 -10 10 -10 6 0 10 -4 10 -10 0 -5 -7
-10 -16 -10 -8 0 -12 5 -9 10 3 6 -1 13 -9 16 -25 10 -27 37 -6 99 22 64 63
125 85 125 7 0 20 -7 29 -15 9 -9 17 -11 21 -5 3 5 1 10 -4 10 -6 0 -11 7 -11
16 0 12 6 11 32 -7 21 -15 43 -22 67 -20 43 2 47 6 31 26 -9 11 -24 14 -57 10
-39 -5 -45 -3 -55 20 -6 14 -16 25 -22 25 -26 0 13 20 52 26 38 6 42 5 35 -11
-4 -13 -3 -16 6 -10 7 4 11 18 8 31 -3 18 0 24 14 24 11 0 19 5 19 11 0 7 16
31 35 55 37 45 42 60 24 66 -12 4 -8 9 37 50 27 24 44 46 44 56 0 5 9 19 19
31 21 24 16 57 -14 87 -10 11 -12 21 -5 39 6 15 6 27 -1 30 -5 4 -7 10 -4 15
3 5 1 18 -5 29 -7 13 -7 28 0 45 11 29 24 36 16 9z m200 -12 c20 -27 5 -32
-37 -11 -21 11 -39 21 -39 23 0 1 15 3 32 3 20 1 37 -5 44 -15z m-472 0 c-27
-7 -74 -42 -74 -56 0 -3 8 -5 18 -5 10 0 23 -5 30 -12 7 -7 12 -8 12 -2 0 5
15 16 34 22 53 20 131 -6 183 -61 54 -56 60 -75 26 -88 -46 -17 -70 1 -64 48
3 19 -18 53 -32 53 -7 0 -39 -14 -72 -31 -33 -16 -67 -28 -77 -26 -20 6 -31
-38 -17 -65 7 -14 6 -16 -6 -12 -16 7 -21 -11 -5 -21 12 -7 5 -94 -10 -109 -8
-8 -16 -4 -30 14 -25 33 -32 60 -14 53 18 -7 8 22 -19 57 l-20 25 6 -30 c3
-17 2 -37 -4 -45 -7 -12 -9 -11 -9 5 -1 11 -9 35 -19 54 -18 34 -18 34 -30 12
-7 -12 -10 -29 -7 -37 7 -18 -8 -18 -24 1 -7 8 -9 22 -6 31 4 10 -1 25 -10 35
-16 17 -11 45 6 34 5 -3 11 -1 14 4 3 5 -1 11 -9 15 -8 3 -15 12 -15 21 0 15
10 19 43 15 11 -1 25 8 33 19 8 11 38 36 67 55 39 27 62 35 92 35 39 -1 39 -1
9 -8z m-174 -41 c0 -5 -5 -10 -11 -10 -5 0 -7 5 -4 10 3 6 8 10 11 10 2 0 4
-4 4 -10z m428 -85 c-3 -3 -13 7 -23 22 l-17 28 23 -22 c12 -12 20 -25 17 -28z
m-1352 20 c-11 -8 -25 -15 -30 -15 -6 1 0 7 14 15 32 19 40 18 16 0z m554 -6
c0 -6 -4 -7 -10 -4 -5 3 -10 11 -10 16 0 6 5 7 10 4 6 -3 10 -11 10 -16z
m-414 -25 c22 8 17 -22 -6 -34 -12 -6 -17 -17 -14 -28 5 -15 4 -15 -6 1 -8 12
-9 32 -4 55 5 24 9 31 12 19 2 -11 10 -16 18 -13z m-231 -24 c-10 -11 -20 -18
-23 -15 -7 6 18 35 31 35 5 0 2 -9 -8 -20z m1678 12 c3 -4 -3 -17 -12 -29
l-18 -21 0 29 c0 27 19 40 30 21z m-937 -27 c25 -19 14 -19 -22 0 -16 8 -22
15 -13 15 8 0 24 -7 35 -15z m-156 -5 c0 -5 -2 -10 -4 -10 -3 0 -8 5 -11 10
-3 6 -1 10 4 10 6 0 11 -4 11 -10z m691 -3 c-1 -4 -1 -13 -1 -20 0 -14 -49
-55 -72 -59 -29 -6 -35 -30 -12 -52 14 -14 13 -18 -11 -42 -14 -14 -29 -23
-33 -20 -3 4 4 16 15 28 20 19 20 23 6 44 -10 15 -11 24 -4 24 6 0 11 6 11 14
0 7 10 16 21 19 14 4 20 11 16 21 -4 9 4 23 21 35 26 20 44 23 43 8z m1630 -5
c-7 -2 -18 1 -23 6 -8 8 -4 9 13 5 13 -4 18 -8 10 -11z m-2524 -7 c53 -1 87
-28 79 -65 -2 -14 -1 -32 5 -40 7 -13 9 -12 9 3 0 18 15 23 25 7 6 -9 -9 -41
-33 -71 -11 -14 -10 -18 3 -22 8 -4 15 -14 15 -23 0 -8 6 -14 13 -11 7 2 17
-9 23 -26 12 -34 34 -48 34 -22 0 10 11 26 24 36 14 11 34 43 45 72 13 35 24
52 36 51 13 -2 15 4 10 26 l-6 29 36 -12 c25 -7 40 -20 47 -36 15 -39 4 -118
-21 -151 -11 -16 -21 -42 -21 -58 0 -30 -32 -68 -48 -58 -5 3 -15 -1 -21 -8
-12 -14 -88 -32 -97 -23 -3 3 9 15 26 27 24 17 34 19 45 10 18 -15 35 -5 35
20 0 10 6 20 13 23 9 3 9 8 1 16 -11 12 -44 5 -44 -10 0 -5 -15 -9 -32 -9 -18
0 -48 -9 -66 -20 -41 -25 -42 -25 -42 5 0 14 -6 25 -12 25 -7 0 -23 17 -35 38
-16 27 -22 32 -23 17 0 -18 -1 -18 -15 2 -9 14 -13 32 -9 46 4 19 0 29 -17 40
-34 24 -59 6 -59 -42 0 -37 23 -72 37 -57 3 3 11 -4 18 -17 6 -12 17 -21 23
-20 6 2 9 -4 6 -12 -8 -21 -27 -19 -42 5 -13 21 -42 28 -42 9 0 -5 -5 -7 -10
-4 -8 5 -7 11 1 21 6 8 9 17 5 21 -3 3 -6 1 -6 -6 0 -20 -23 -7 -25 15 -1 10
-5 34 -9 51 -6 28 -5 32 8 27 9 -3 16 -2 16 2 4 71 12 130 20 138 7 7 17 7 31
-2 11 -7 24 -10 29 -7 15 9 -1 35 -21 35 -11 0 -19 7 -19 18 0 9 4 13 8 7 4
-5 26 -10 49 -10z m934 -44 c-4 -9 -14 -31 -21 -48 -15 -35 -39 -50 -51 -32
-4 6 -11 9 -16 6 -16 -10 -12 27 5 46 9 10 23 15 34 11 10 -3 17 -2 16 3 -1 4
4 18 12 30 16 25 33 11 21 -16z m-372 -42 c1 -12 -5 -15 -24 -11 -14 2 -25 9
-25 14 0 6 7 8 15 4 11 -4 15 3 16 27 1 30 1 31 9 7 4 -14 8 -32 9 -41z m461
22 c-12 -17 -26 -31 -31 -31 -5 0 -12 0 -16 0 -5 0 -8 8 -8 18 0 15 64 56 74
47 2 -2 -7 -18 -19 -34z m-404 -80 c28 -35 57 -92 50 -99 -11 -10 -58 43 -77
86 -22 51 -26 90 -6 58 7 -10 21 -30 33 -45z m-163 -66 c-5 -30 -3 -34 11 -29
12 5 16 0 16 -16 0 -16 -4 -20 -16 -16 -9 3 -20 6 -24 6 -5 0 -7 21 -5 48 4
58 3 54 14 47 5 -3 7 -21 4 -40z m377 3 c-5 -24 -6 -46 -4 -49 8 -13 -22 -16
-39 -4 -26 18 -21 41 16 69 17 14 33 26 33 26 1 0 -2 -19 -6 -42z m-70 -10 c0
-19 -2 -20 -10 -8 -13 19 -13 30 0 30 6 0 10 -10 10 -22z m180 4 c0 -25 -35
-58 -45 -42 -4 6 -4 22 -1 36 8 29 46 34 46 6z m-427 -45 c-9 -16 -26 12 -18
30 7 17 8 17 15 -2 4 -11 5 -24 3 -28z m225 -7 c-14 -22 -24 -19 -15 5 4 8 11
15 17 15 6 0 6 -7 -2 -20z m1092 16 c0 -3 -4 -8 -10 -11 -5 -3 -10 -1 -10 4 0
6 5 11 10 11 6 0 10 -2 10 -4z m-1135 -24 c-3 -3 -11 0 -18 7 -9 10 -8 11 6 5
10 -3 15 -9 12 -12z m-830 -2 c3 -5 1 -10 -4 -10 -6 0 -11 5 -11 10 0 6 2 10
4 10 3 0 8 -4 11 -10z m943 -35 c32 6 34 5 23 -9 -30 -36 -96 -9 -84 34 l7 24
9 -28 c9 -26 12 -27 45 -21z m404 9 c-7 -12 -11 -13 -17 -4 -4 7 -2 16 6 21
18 11 23 4 11 -17z m1711 12 c8 -19 1 -24 -28 -18 -20 3 -23 7 -14 18 15 18
35 18 42 0z m57 -6 c0 -13 -11 -13 -30 0 -12 8 -11 10 8 10 12 0 22 -4 22 -10z
m-1182 -18 c2 -7 -3 -12 -12 -12 -9 0 -16 7 -16 16 0 17 22 14 28 -4z m1318
-33 c4 -8 1 -8 -14 0 -12 6 -24 16 -28 22 -4 8 -1 8 14 0 12 -6 24 -16 28 -22z
m-206 17 c0 -3 -4 -8 -10 -11 -5 -3 -10 -1 -10 4 0 6 5 11 10 11 6 0 10 -2 10
-4z m-2735 -15 c3 -5 -8 -16 -25 -24 -35 -18 -39 -12 -8 14 24 22 25 22 33 10z
m-105 -5 c0 -3 -4 -8 -10 -11 -5 -3 -10 -1 -10 4 0 6 5 11 10 11 6 0 10 -2 10
-4z m405 -16 c3 -5 17 -10 31 -10 17 0 24 -5 24 -20 0 -11 -4 -20 -10 -20 -5
0 -10 5 -10 11 0 6 -7 8 -16 5 -19 -7 -57 21 -48 35 7 12 21 11 29 -1z m2332
4 c-3 -3 -12 -4 -19 -1 -8 3 -5 6 6 6 11 1 17 -2 13 -5z m-2380 -52 c-8 -11
-12 -11 -18 0 -5 7 -9 22 -9 32 0 19 0 19 19 0 13 -14 16 -23 8 -32z m1266 -3
c3 -11 14 -19 26 -19 26 0 52 -39 44 -68 -3 -12 -6 -22 -7 -22 -1 0 -33 16
-70 35 -38 19 -77 35 -87 35 -10 0 -23 8 -29 18 -8 12 -13 13 -16 5 -8 -18
-24 -16 -24 2 0 18 45 31 63 18 6 -5 23 -10 37 -11 23 -1 24 0 5 10 -19 11
-19 11 0 18 28 10 52 1 58 -21z m-1033 -9 c0 -5 -4 -10 -10 -10 -5 0 -10 5
-10 10 0 6 5 10 10 10 6 0 10 -4 10 -10z m-260 -10 c0 -5 -4 -10 -10 -10 -5 0
-10 5 -10 10 0 6 5 10 10 10 6 0 10 -4 10 -10z m134 -20 c-11 -11 -64 -21 -64
-13 0 4 7 15 16 24 13 14 21 16 36 8 11 -6 16 -15 12 -19z m1366 23 c0 -5 -4
-14 -9 -21 -7 -11 -9 -11 -14 1 -3 8 -3 18 0 21 9 8 23 7 23 -1z m1234 -9 c5
-14 4 -15 -9 -4 -17 14 -19 20 -6 20 5 0 12 -7 15 -16z m-2703 -17 c-10 -9
-11 -8 -5 6 3 10 9 15 12 12 3 -3 0 -11 -7 -18z m184 14 c-7 -12 26 -31 54
-31 12 0 21 -4 21 -9 0 -14 -63 -20 -75 -7 -14 14 -17 56 -4 56 6 0 8 -4 4 -9z
m1313 -18 c-2 -9 -8 -18 -15 -20 -7 -3 -9 3 -6 16 6 25 26 28 21 4z m-1608 -3
c0 -5 -4 -10 -10 -10 -5 0 -10 5 -10 10 0 6 5 10 10 10 6 0 10 -4 10 -10z
m-32 -12 c15 -15 16 -41 0 -36 -13 5 -31 48 -20 48 5 0 13 -5 20 -12z m52 -8
c0 -5 -5 -10 -11 -10 -5 0 -7 5 -4 10 3 6 8 10 11 10 2 0 4 -4 4 -10z m1290
-51 c0 -6 -4 -7 -10 -4 -5 3 -10 11 -10 16 0 6 5 7 10 4 6 -3 10 -11 10 -16z
m1791 11 c19 -10 54 -68 46 -76 -5 -5 -77 67 -77 78 0 11 7 10 31 -2z m-3216
-40 c3 -5 1 -10 -4 -10 -6 0 -11 5 -11 10 0 6 2 10 4 10 3 0 8 -4 11 -10z
m1525 -34 c0 -2 3 -12 6 -20 4 -12 2 -15 -9 -10 -21 8 -30 34 -12 34 8 0 15
-2 15 -4z m-1102 -35 c3 -8 -1 -12 -9 -9 -7 2 -15 10 -17 17 -3 8 1 12 9 9 7
-2 15 -10 17 -17z m1282 -58 c0 -7 -11 -13 -25 -13 -14 0 -25 -5 -25 -11 0 -5
-3 -8 -7 -6 -5 3 -6 29 -4 58 l3 53 29 -34 c16 -19 29 -41 29 -47z m-2035 2
c31 -38 45 -75 30 -75 -14 0 -65 31 -65 40 0 5 -10 10 -22 12 -18 2 -23 10
-23 33 0 17 1 33 2 37 7 15 45 -8 78 -47z m1955 26 c0 -11 -31 -24 -39 -16 -3
3 1 10 9 15 19 12 30 12 30 1z m-2116 -50 c8 -12 -21 -34 -34 -26 -17 11 -11
35 9 35 11 0 22 -4 25 -9z m656 -1 c0 -5 -7 -10 -15 -10 -8 0 -15 5 -15 10 0
6 7 10 15 10 8 0 15 -4 15 -10z m1807 4 c-3 -3 -12 -4 -19 -1 -8 3 -5 6 6 6
11 1 17 -2 13 -5z m-2546 -57 c-7 -17 -18 -27 -31 -27 -30 0 -25 32 8 52 31
19 37 12 23 -25z m729 13 c11 -11 20 -15 20 -10 0 6 16 10 35 10 40 0 41 -3
21 -78 -16 -60 -46 -93 -58 -64 -4 9 -7 11 -7 5 -1 -7 -12 -13 -25 -13 -13 0
-28 6 -33 13 -10 12 -9 90 2 106 3 5 -1 11 -7 14 -10 3 -10 7 1 20 18 22 27
21 51 -3z m-410 -14 c0 -9 -46 -103 -62 -124 -10 -15 -18 -19 -23 -13 -3 6
-11 9 -16 6 -13 -9 -11 23 4 42 6 8 24 27 40 41 15 15 27 32 27 39 0 7 7 13
15 13 8 0 15 -2 15 -4z m2850 -12 c0 -8 -5 -12 -10 -9 -6 4 -8 11 -5 16 9 14
15 11 15 -7z m-3065 -34 c3 -5 -1 -10 -10 -10 -9 0 -13 5 -10 10 3 6 8 10 10
10 2 0 7 -4 10 -10z m2160 -50 c8 -16 15 -38 15 -50 0 -12 5 -18 10 -15 6 3
14 -4 19 -17 5 -13 16 -30 25 -37 9 -8 16 -27 15 -45 0 -17 -3 -25 -6 -18 -2
6 -9 12 -14 12 -6 0 -7 -5 -3 -11 4 -7 0 -10 -10 -7 -10 1 -25 16 -34 31 -14
23 -15 29 -3 36 17 11 6 31 -18 31 -10 0 -26 11 -35 25 -15 22 -15 29 -2 60 8
19 17 35 20 35 3 0 12 -13 21 -30z m505 10 c0 -5 -2 -10 -4 -10 -3 0 -8 5 -11
10 -3 6 -1 10 4 10 6 0 11 -4 11 -10z m140 -35 c-7 -9 -15 -13 -18 -10 -3 2 1
11 8 20 7 9 15 13 18 10 3 -2 -1 -11 -8 -20z m-1725 -85 c3 -5 1 -10 -4 -10
-6 0 -11 5 -11 10 0 6 2 10 4 10 3 0 8 -4 11 -10z m1994 -26 c-11 -14 -10 -15
6 -12 13 2 21 -4 23 -17 4 -17 2 -18 -12 -6 -14 11 -16 11 -16 -2 0 -9 -4 -19
-10 -22 -6 -3 -7 1 -4 9 3 9 2 16 -4 16 -5 0 -12 -13 -14 -30 -3 -16 -1 -30 3
-30 4 0 10 -7 13 -16 5 -12 2 -15 -10 -10 -9 3 -20 4 -25 1 -12 -8 20 -41 48
-49 30 -10 64 -58 53 -76 -5 -8 -6 -18 -4 -22 3 -4 0 -8 -5 -8 -6 0 -11 13
-11 28 0 30 -44 82 -57 68 -4 -4 -1 -11 7 -16 11 -7 11 -10 2 -10 -7 0 -15 7
-18 15 -4 8 -10 15 -15 15 -6 0 -5 -9 1 -20 6 -11 7 -20 1 -20 -13 0 -22 27
-14 45 8 21 -25 55 -53 55 -18 0 -25 7 -30 28 -7 36 -22 70 -23 54 -1 -7 -5
-11 -9 -8 -4 2 -13 1 -20 -3 -10 -6 -9 -17 2 -49 14 -39 14 -42 -4 -52 -27
-15 -38 -12 -16 5 22 17 12 38 -15 30 -26 -9 -24 9 4 29 12 9 16 14 8 10 -23
-12 -7 18 22 39 22 17 29 18 42 7 8 -7 15 -18 15 -24 0 -7 13 -24 28 -39 36
-35 59 -27 68 21 4 21 16 47 27 60 23 25 36 30 16 6z m-842 -84 c11 0 13 -12
8 -57 -8 -66 -39 -129 -51 -100 -3 9 -13 17 -21 17 -9 0 -12 6 -8 19 3 12 0
21 -10 25 -21 8 -19 23 4 31 18 5 19 12 14 58 l-6 51 28 -22 c15 -12 34 -22
42 -22z m-1013 15 c3 -8 1 -15 -4 -15 -6 0 -10 7 -10 15 0 8 2 15 4 15 2 0 6
-7 10 -15z m2086 -2 c0 -34 -17 -46 -18 -14 0 17 4 31 9 31 5 0 9 -8 9 -17z
m-1518 -50 c-10 -28 -10 -28 -11 12 -1 28 2 36 10 28 8 -8 8 -19 1 -40z m326
25 c12 -11 17 -38 6 -38 -16 0 -64 36 -64 48 0 14 34 8 58 -10z m697 12 c3 -6
-1 -7 -9 -4 -18 7 -21 14 -7 14 6 0 13 -4 16 -10z m-1580 -20 c3 -5 -1 -10 -9
-10 -9 0 -16 5 -16 10 0 6 4 10 9 10 6 0 13 -4 16 -10z m834 -9 c10 -6 10 -10
1 -16 -7 -4 -19 0 -28 9 -14 13 -14 16 -2 16 8 0 21 -4 29 -9z m-942 -13 c15
-19 21 -65 12 -80 -7 -10 -9 -10 -9 2 0 13 -1 13 -10 0 -17 -26 -11 -58 10
-65 14 -5 19 -12 15 -24 -3 -10 -1 -30 4 -45 14 -35 1 -33 -24 4 -11 16 -25
30 -30 30 -23 0 -35 23 -22 39 9 11 9 13 0 8 -18 -11 -25 9 -12 36 8 17 17 24
28 20 10 -3 12 -2 4 4 -13 10 -12 65 2 75 14 11 21 10 32 -4z m-390 -20 c-3
-8 -6 -5 -6 6 -1 11 2 17 5 13 3 -3 4 -12 1 -19z m2258 -22 c-8 -12 -12 -26
-8 -29 3 -4 2 -7 -4 -7 -11 0 -23 22 -23 42 0 6 7 8 15 4 9 -3 15 0 15 10 0 8
4 12 10 9 6 -4 4 -15 -5 -29z m-1605 -2 c0 -8 -4 -12 -10 -9 -5 3 -10 10 -10
16 0 5 5 9 10 9 6 0 10 -7 10 -16z m605 6 c4 -6 4 -18 1 -27 -5 -12 -9 -13
-21 -3 -8 7 -15 19 -15 26 0 16 26 19 35 4z m402 -2 c15 -6 38 -10 51 -9 12 1
22 -2 22 -7 0 -6 14 -13 30 -17 25 -6 31 -12 36 -45 4 -22 9 -39 13 -38 20 2
21 -5 6 -28 -32 -49 -50 -64 -77 -64 -20 0 -28 -5 -28 -17 0 -10 -16 -29 -34
-43 -19 -14 -33 -27 -31 -30 2 -3 -3 -11 -11 -18 -11 -10 -14 -10 -14 2 0 15
-34 12 -56 -6 -16 -12 -24 13 -24 75 0 67 10 104 21 85 14 -21 11 23 -4 52 -6
14 -11 40 -9 58 3 30 5 31 25 20 30 -17 44 -18 44 -4 0 23 3 46 7 46 3 0 17
-5 33 -12z m-667 -58 c-6 -15 -18 -27 -26 -26 -18 3 -20 6 -28 40 -7 27 -6 28
11 11 16 -17 18 -16 26 10 8 24 11 26 19 11 7 -12 6 -27 -2 -46z m1150 28 c0
-18 -7 -46 -15 -62 -8 -15 -12 -33 -8 -40 4 -8 3 -8 -6 0 -10 9 -9 19 4 44 9
18 15 46 13 61 -3 16 -1 29 4 29 4 0 8 -15 8 -32z m-2575 12 c-3 -5 1 -20 9
-32 10 -13 16 -17 16 -9 0 8 2 12 5 9 3 -3 3 -12 -1 -21 -5 -15 -8 -15 -21 -1
-11 11 -19 12 -28 4 -24 -20 -71 5 -53 28 14 17 28 15 28 -4 0 -19 25 -13 26
7 2 25 4 29 15 29 5 0 7 -4 4 -10z m2645 -10 c6 -11 7 -20 2 -20 -10 0 -32 21
-32 32 0 16 19 8 30 -12z m-1345 0 c3 -5 1 -10 -4 -10 -6 0 -11 5 -11 10 0 6
2 10 4 10 3 0 8 -4 11 -10z m1490 -30 c3 -5 1 -10 -4 -10 -6 0 -11 5 -11 10 0
6 2 10 4 10 3 0 8 -4 11 -10z m-2355 -15 c-12 -14 -10 -17 17 -19 7 -1 13 -6
14 -11 1 -16 21 -35 36 -35 12 0 12 3 -2 16 -25 25 -12 26 40 4 47 -20 83 -19
97 4 5 7 12 4 22 -9 15 -20 15 -20 9 3 -6 24 -1 27 27 12 11 -6 17 -17 14 -24
-4 -10 3 -16 22 -18 38 -4 40 -21 7 -52 l-28 -26 33 9 c34 10 35 9 32 -28 -1
-15 8 -32 27 -48 19 -16 24 -26 15 -30 -7 -2 -19 -11 -27 -20 -13 -13 -16 -11
-26 14 -19 48 -26 58 -40 59 -8 0 -22 2 -32 2 -10 1 -21 12 -26 25 -5 12 -20
34 -34 49 -14 15 -23 28 -21 30 2 2 -8 4 -21 4 -32 0 -43 -40 -19 -67 16 -18
16 -19 0 -19 -9 0 -16 -6 -15 -12 3 -25 -1 -37 -13 -41 -7 -2 -5 -3 5 -2 12 2
17 -4 17 -21 0 -15 -6 -24 -15 -24 -20 0 -19 -10 3 -27 9 -8 11 -12 5 -8 -7 3
-13 1 -13 -6 0 -8 -10 -9 -32 -5 -40 8 -41 8 -28 41 12 31 4 69 -12 59 -6 -4
-8 2 -4 17 l6 24 -11 -22 c-14 -27 -31 -29 -65 -7 -21 14 -24 21 -18 53 4 19
13 41 20 48 15 15 44 17 44 3 0 -5 12 -10 26 -10 14 0 23 -4 20 -9 -3 -4 6 -6
19 -3 14 2 25 7 25 11 0 12 -50 29 -69 24 -14 -4 -26 5 -43 31 -15 24 -29 35
-43 34 -33 -5 -24 26 10 33 54 11 59 11 45 -6z m2263 -2 c-3 -7 -9 -13 -13
-13 -4 0 -10 6 -13 13 -3 7 3 13 13 13 10 0 16 -6 13 -13z m-747 -29 c-3 -9
-6 -18 -6 -20 0 -3 -4 -3 -10 1 -11 7 -2 35 12 35 6 0 7 -7 4 -16z m-1986 -4
c0 -5 -2 -10 -4 -10 -3 0 -8 5 -11 10 -3 6 -1 10 4 10 6 0 11 -4 11 -10z
m2960 1 c0 -6 -4 -13 -10 -16 -5 -3 -10 1 -10 9 0 9 5 16 10 16 6 0 10 -4 10
-9z m-142 -64 c12 -11 22 -24 22 -29 0 -17 -27 -7 -57 21 -18 16 -33 27 -35
25 -2 -2 -4 6 -4 16 0 18 2 19 26 3 14 -8 35 -25 48 -36z m92 33 c0 -5 -2 -10
-4 -10 -3 0 -8 5 -11 10 -3 6 -1 10 4 10 6 0 11 -4 11 -10z m-1130 -4 c0 -3
-4 -8 -10 -11 -5 -3 -10 -1 -10 4 0 6 5 11 10 11 6 0 10 -2 10 -4z m-350 -14
c0 -5 -9 -17 -20 -27 -16 -14 -20 -15 -20 -4 0 16 19 39 32 39 4 0 8 -4 8 -8z
m1200 -24 c0 -5 -7 -3 -15 6 -8 8 -15 18 -15 22 0 3 7 1 15 -6 8 -7 15 -17 15
-22z m-2455 2 c3 -5 1 -10 -4 -10 -6 0 -11 5 -11 10 0 6 2 10 4 10 3 0 8 -4
11 -10z m-228 -7 c-4 -3 -2 -12 5 -20 9 -11 7 -12 -16 -4 -14 6 -26 7 -26 2 0
-5 18 -12 39 -16 22 -4 45 -12 51 -20 6 -7 26 -16 45 -19 47 -9 105 -47 100
-66 -3 -8 0 -22 5 -30 5 -8 10 -10 10 -5 0 6 5 3 10 -5 8 -13 11 -12 24 5 24
31 19 0 -10 -63 -14 -31 -29 -64 -33 -72 -10 -19 -80 -26 -85 -8 -1 7 -8 28
-14 46 -8 24 -7 32 1 32 7 0 13 15 13 32 1 33 1 33 -14 10 -8 -12 -20 -22 -26
-22 -17 0 -36 46 -24 58 16 16 1 30 -26 25 -18 -4 -27 1 -37 18 -7 13 -18 30
-26 37 -19 19 -16 69 5 81 19 12 39 14 29 4z m683 -9 c0 -8 -4 -12 -10 -9 -5
3 -10 10 -10 16 0 5 5 9 10 9 6 0 10 -7 10 -16z m2124 -30 c5 -17 2 -22 -16
-26 -19 -3 -23 0 -25 21 -1 14 0 32 3 40 4 13 7 13 18 0 8 -8 17 -24 20 -35z
m-2709 25 c4 -6 13 -8 20 -5 12 4 61 -51 53 -60 -2 -2 -21 1 -41 7 -27 7 -35
14 -30 26 5 12 1 14 -15 9 -12 -4 -23 -2 -28 5 -5 9 -2 10 11 5 15 -5 16 -4 5
9 -10 12 -10 15 3 15 9 0 19 -5 22 -11z m1901 -26 c-11 -11 -19 6 -11 24 8 17
8 17 12 0 3 -10 2 -21 -1 -24z m730 12 c9 -14 20 -23 24 -20 4 2 0 -11 -8 -30
-13 -28 -19 -32 -34 -24 -13 7 -18 6 -18 -2 0 -7 -3 -9 -6 -6 -4 4 -1 13 6 22
11 13 10 15 -6 9 -15 -5 -14 -3 4 10 17 14 20 21 12 36 -21 39 1 43 26 5z
m-103 -5 c3 -11 1 -18 -4 -14 -5 3 -9 12 -9 20 0 20 7 17 13 -6z m217 10 c0
-5 -2 -10 -4 -10 -3 0 -8 5 -11 10 -3 6 -1 10 4 10 6 0 11 -4 11 -10z m-1838
-33 c-3 -22 1 -30 17 -34 12 -3 21 -12 21 -20 0 -8 -4 -11 -10 -8 -5 3 -10 -1
-10 -9 0 -9 -3 -16 -7 -16 -12 0 -43 33 -43 45 0 12 -39 52 -46 48 -2 -2 -4 0
-5 5 0 9 40 21 66 19 16 -2 19 -8 17 -30z m-268 -3 c9 -8 16 -22 16 -30 0 -26
1 -29 22 -51 40 -42 3 -23 -40 21 -29 29 -40 49 -36 60 8 20 18 20 38 0z m180
-20 c4 -10 1 -14 -6 -12 -15 5 -23 28 -10 28 5 0 13 -7 16 -16z m1723 -6 c-3
-8 -6 -5 -6 6 -1 11 2 17 5 13 3 -3 4 -12 1 -19z m-1107 -14 c0 -8 -5 -12 -10
-9 -6 4 -8 11 -5 16 9 14 15 11 15 -7z m1094 -24 c4 -25 3 -31 -4 -20 -5 8
-10 26 -10 39 0 32 6 24 14 -19z m269 8 c8 -30 -2 -37 -19 -14 -18 25 -18 36
0 36 7 0 16 -10 19 -22z m-2177 -15 c-7 -7 -26 7 -26 19 0 6 6 6 15 -2 9 -7
13 -15 11 -17z m-179 -25 c-2 -24 -8 -22 -35 12 l-22 28 29 -11 c19 -7 29 -17
28 -29z m402 21 c-16 -10 -23 -4 -14 10 3 6 11 8 17 5 6 -4 5 -9 -3 -15z m161
0 c0 -5 -6 -9 -12 -9 -7 0 -24 -3 -38 -6 l-25 -6 24 20 c24 19 51 20 51 1z
m125 -9 c3 -5 1 -10 -4 -10 -6 0 -11 5 -11 10 0 6 2 10 4 10 3 0 8 -4 11 -10z
m1475 -32 c0 -16 -33 9 -36 27 -2 16 -1 15 17 -1 10 -9 19 -21 19 -26z m-2280
17 c0 -8 -4 -15 -10 -15 -5 0 -10 7 -10 15 0 8 5 15 10 15 6 0 10 -7 10 -15z
m50 3 c0 -4 -7 -8 -15 -8 -8 0 -15 4 -15 8 0 5 7 9 15 9 8 0 15 -4 15 -9z
m815 -8 c-3 -5 -16 -10 -28 -9 -21 0 -21 1 -2 9 28 12 37 12 30 0z m1515 0 c0
-5 -5 -10 -11 -10 -5 0 -7 5 -4 10 3 6 8 10 11 10 2 0 4 -4 4 -10z m-1800 -15
c0 -8 -9 -15 -20 -15 -13 0 -18 5 -14 15 4 8 12 15 20 15 8 0 14 -7 14 -15z
m340 5 c0 -5 -4 -10 -10 -10 -5 0 -10 5 -10 10 0 6 5 10 10 10 6 0 10 -4 10
-10z m-594 -21 c17 -16 27 -19 40 -11 13 7 26 6 46 -4 24 -13 28 -13 28 0 0 8
-6 17 -12 19 -10 4 -10 6 -1 6 6 1 15 -3 18 -9 3 -5 15 -10 26 -10 10 0 19 -3
19 -7 0 -11 -20 -40 -20 -30 0 15 -70 -62 -70 -78 0 -8 -7 -15 -15 -15 -8 0
-15 -4 -15 -10 0 -5 11 -10 24 -10 16 0 27 -7 31 -20 4 -11 21 -28 38 -37 25
-13 28 -18 15 -21 -10 -2 -18 -10 -18 -18 0 -21 -59 -19 -66 4 -3 9 -10 25
-15 35 -5 10 -7 22 -3 28 3 5 1 16 -5 23 -7 8 -10 20 -9 27 2 7 -9 19 -24 26
-16 8 -28 18 -28 24 0 5 -8 9 -18 9 -27 0 -31 8 -21 43 7 26 6 34 -8 45 -15
11 -13 12 12 12 16 0 39 -9 51 -21z m178 6 c11 -8 16 -15 10 -15 -5 0 -18 7
-28 15 -11 8 -16 15 -10 15 5 0 18 -7 28 -15z m1699 -29 c4 -10 1 -13 -8 -9
-8 3 -12 9 -9 14 7 12 11 11 17 -5z m-2608 -53 c21 -27 34 -39 31 -27 -5 15
-2 24 10 28 22 8 40 -4 23 -15 -8 -5 -9 -9 -3 -9 6 0 14 -18 18 -39 3 -22 12
-46 20 -54 15 -15 11 -57 -5 -57 -5 0 -19 -10 -31 -22 l-21 -21 5 21 c6 20 3
21 -46 17 -28 -2 -70 -6 -93 -9 -38 -5 -43 -3 -43 14 0 14 -5 18 -17 13 -12
-4 -11 0 5 11 22 17 31 56 12 56 -7 0 -7 7 1 21 11 22 0 38 -27 39 -6 0 -18
16 -27 35 -9 19 -12 35 -7 35 6 0 11 -8 11 -17 1 -17 2 -17 6 0 5 19 43 24 43
6 0 -7 -8 -18 -17 -25 -17 -13 -17 -13 0 -14 10 0 20 7 23 15 4 8 10 12 16 9
5 -3 18 3 29 15 29 31 42 26 84 -26z m2635 32 c0 -8 -7 -15 -15 -15 -13 0 -14
3 -3 15 16 18 18 18 18 0z m-2209 -18 c4 -5 11 -7 17 -3 6 3 13 2 16 -3 3 -5
-1 -12 -10 -15 -24 -9 -46 -7 -39 3 3 5 -5 17 -17 26 l-23 17 25 -7 c14 -4 28
-12 31 -18z m1662 -7 c-4 -5 -30 -15 -57 -24 -57 -19 -86 -7 -39 16 29 15 111
21 96 8z m-3 -63 c49 -2 55 -5 58 -24 3 -17 -2 -23 -16 -23 -30 0 -185 21
-202 27 -24 9 40 32 75 26 16 -2 55 -5 85 -6z m372 -42 c14 -31 3 -45 -16 -20
-8 11 -20 16 -30 12 -19 -8 -21 -1 -3 18 18 21 36 18 49 -10z m-1855 -1 c-3
-3 -12 -4 -19 -1 -8 3 -5 6 6 6 11 1 17 -2 13 -5z m-861 -76 c19 -23 19 -23
-1 -7 -11 9 -27 19 -35 22 -13 5 -13 6 1 6 9 1 24 -9 35 -21z m1524 -9 c0 -11
-4 -18 -10 -14 -5 3 -7 12 -3 20 7 21 13 19 13 -6z m1095 1 c3 -5 2 -10 -4
-10 -5 0 -13 5 -16 10 -3 6 -2 10 4 10 5 0 13 -4 16 -10z m-1410 -14 c10 -7
28 -11 39 -9 17 4 18 3 6 -6 -8 -5 -15 -18 -15 -28 0 -10 -6 -17 -12 -15 -7 1
-13 -1 -14 -5 0 -5 -2 -16 -4 -25 -3 -15 4 -18 35 -18 48 0 70 8 64 24 -3 7 0
25 6 40 9 26 12 27 57 20 72 -10 83 -19 83 -64 0 -27 6 -42 18 -49 13 -8 10
-10 -18 -7 -22 2 -36 9 -38 19 -5 24 -43 33 -57 13 -15 -19 -70 -32 -79 -18
-8 13 -116 4 -131 -10 -7 -6 0 -17 19 -32 l28 -23 -31 -14 c-38 -17 -40 -52
-3 -57 14 -2 22 -10 22 -23 0 -23 -4 -24 -35 -3 -15 10 -25 27 -26 43 -1 15
-3 19 -6 9 -2 -9 -10 -18 -16 -21 -9 -3 -12 13 -11 57 1 35 -3 64 -9 68 -11 7
-8 8 38 23 8 2 15 15 15 29 0 27 15 42 25 26 3 -5 1 -10 -5 -10 -6 0 -8 -4 -5
-10 10 -15 32 -12 39 6 8 20 -13 47 -31 40 -16 -7 -16 -1 -1 24 15 24 27 25
53 6z m-1146 -9 c-9 -7 -14 -17 -12 -23 2 -6 -1 -22 -6 -35 -9 -24 -9 -24 -21
9 -7 17 -16 32 -21 32 -5 0 -9 4 -9 9 0 5 9 7 20 4 11 -3 20 0 20 6 0 6 10 11
23 11 19 -1 20 -2 6 -13z m116 -18 c-8 -12 -45 -12 -45 0 0 10 30 20 43 14 4
-3 5 -9 2 -14z m291 9 c4 -7 -1 -17 -13 -25 -13 -9 -19 -21 -16 -32 4 -16 9
-17 41 -8 21 6 39 14 42 18 14 18 48 18 64 1 13 -15 14 -25 7 -45 -11 -29 -30
-28 -64 1 -17 15 -17 13 -13 -21 3 -25 1 -37 -8 -37 -23 0 -36 -22 -25 -42 15
-28 4 -33 -19 -10 -11 11 -23 21 -28 23 -5 2 -19 22 -31 44 -13 25 -27 39 -37
37 -21 -4 -58 17 -51 28 3 4 -1 10 -7 13 -7 3 -1 4 15 3 15 -2 30 -6 34 -9 10
-11 23 -8 23 5 0 12 58 68 71 68 4 0 11 -5 15 -12z m1204 8 c0 -2 3 -11 6 -20
4 -11 0 -16 -14 -16 -11 0 -23 -7 -26 -16 -9 -23 -5 -25 34 -14 19 5 35 8 37
6 4 -4 -61 -46 -71 -46 -4 0 -20 -10 -36 -22 -21 -15 -28 -27 -24 -40 4 -13 0
-18 -12 -18 -14 0 -16 7 -12 45 3 24 2 42 -3 39 -5 -3 -9 -18 -9 -35 0 -19 -5
-29 -15 -29 -16 0 -18 8 -15 52 1 14 -3 29 -9 33 -22 13 -11 32 19 33 38 1 51
9 43 27 -6 18 18 20 35 3 8 -8 17 -7 34 5 23 16 38 21 38 13z m-920 -26 c0 -5
-5 -10 -11 -10 -5 0 -7 5 -4 10 3 6 8 10 11 10 2 0 4 -4 4 -10z m-543 -6 c-10
-10 26 -42 41 -36 10 3 13 1 8 -6 -4 -7 -14 -12 -22 -12 -8 0 -14 -4 -14 -8 0
-17 13 -21 30 -9 21 13 70 -7 70 -29 0 -7 17 -26 38 -43 27 -22 34 -33 24 -39
-7 -5 -11 -15 -9 -23 2 -8 2 -11 0 -6 -8 12 -25 8 -20 -5 2 -7 0 -21 -5 -32
-7 -12 -6 -22 1 -29 8 -8 11 -7 11 3 0 7 3 10 7 7 3 -4 12 -2 20 4 7 6 13 8
12 3 -1 -14 -69 -67 -69 -55 0 6 -4 11 -10 11 -5 0 -7 -6 -4 -14 4 -11 -4 -16
-27 -18 -36 -3 -63 -33 -41 -47 18 -11 -33 -72 -54 -64 -11 4 -14 -4 -13 -41
2 -40 7 -51 46 -86 26 -23 49 -37 58 -34 26 10 17 -25 -12 -43 -15 -10 -38
-29 -51 -42 -22 -21 -25 -22 -39 -8 -14 13 -14 19 -3 31 14 18 0 22 -18 4 -8
-8 -6 -18 9 -39 l20 -29 -33 -20 c-40 -24 -58 -25 -58 -4 0 23 41 104 63 127
15 15 17 26 10 65 -4 26 -7 62 -7 79 0 30 -2 32 -24 26 -25 -6 -26 -1 -4 56 3
9 1 12 -6 7 -7 -4 -12 -15 -12 -24 0 -9 -5 -24 -11 -32 -8 -11 -9 -5 -6 25 3
22 8 49 13 59 5 13 4 17 -4 12 -6 -3 -13 -2 -17 4 -8 13 18 13 31 0 22 -22 44
1 44 44 0 62 -17 80 -78 79 -28 0 -49 4 -46 9 3 4 12 8 20 8 8 0 14 9 14 19 0
10 7 21 15 25 8 3 15 14 15 25 0 12 12 25 29 34 28 14 29 14 35 -14 3 -16 3
-37 -1 -46 -3 -10 -3 -15 2 -11 4 4 14 0 21 -10 11 -15 12 -12 7 20 -5 34 -4
36 16 31 13 -3 21 -1 21 6 0 7 -5 9 -11 5 -7 -4 -9 1 -7 12 2 11 -9 39 -24 63
-28 45 -29 61 -1 61 9 0 14 -3 10 -6z m53 -8 c0 -3 -4 -8 -10 -11 -5 -3 -10
-1 -10 4 0 6 5 11 10 11 6 0 10 -2 10 -4z m-440 -25 c0 -5 -7 -11 -15 -15 -15
-5 -20 5 -8 17 9 10 23 9 23 -2z m40 -1 c0 -5 -5 -10 -11 -10 -5 0 -7 5 -4 10
3 6 8 10 11 10 2 0 4 -4 4 -10z m1030 -21 c0 -5 7 -9 15 -9 9 0 12 -6 9 -15
-4 -9 2 -18 17 -24 23 -9 12 -16 -18 -12 -24 3 -13 -10 17 -20 17 -6 30 -16
30 -22 0 -7 5 -19 10 -27 9 -13 11 -13 20 0 8 12 9 9 7 -10 -3 -16 -11 -26
-25 -28 -11 -2 -26 -10 -32 -18 -15 -17 -65 -20 -54 -3 4 8 0 9 -15 4 -15 -5
-21 -2 -21 9 0 15 14 20 47 19 7 -1 11 3 8 7 -3 4 2 10 10 14 8 3 15 10 15 15
0 6 -7 8 -15 5 -8 -4 -15 -2 -15 4 0 9 -36 25 -52 23 -4 0 -5 6 -2 14 6 14 17
19 36 16 4 0 1 17 -7 39 -12 34 -12 38 1 33 8 -3 14 -9 14 -14z m-1040 -17 c0
-11 -9 -29 -20 -42 -11 -13 -20 -17 -20 -10 0 7 8 19 18 27 12 10 14 16 5 19
-18 8 -16 24 2 24 8 0 15 -8 15 -18z m35 -12 c3 -6 -1 -7 -9 -4 -18 7 -21 14
-7 14 6 0 13 -4 16 -10z m85 -22 c0 -18 -2 -20 -9 -8 -6 8 -7 18 -5 22 9 14
14 9 14 -14z m658 2 c-14 -22 -24 -19 -15 5 4 8 11 15 17 15 6 0 6 -7 -2 -20z
m-268 -11 c0 -6 -4 -7 -10 -4 -5 3 -10 11 -10 16 0 6 5 7 10 4 6 -3 10 -11 10
-16z m399 -10 c-24 -15 -37 -10 -32 11 4 16 9 18 25 9 17 -9 18 -13 7 -20z
m-726 0 c3 -12 3 -18 0 -15 -4 3 -12 1 -20 -6 -21 -17 -27 -2 -6 20 10 11 19
21 19 21 1 1 4 -8 7 -20z m167 17 c0 -3 -4 -8 -10 -11 -5 -3 -10 -1 -10 4 0 6
5 11 10 11 6 0 10 -2 10 -4z m1595 -7 c4 -5 -5 -28 -19 -50 -19 -27 -33 -39
-50 -39 -33 0 -37 19 -12 54 28 38 69 56 81 35z m-1695 -15 c0 -8 -5 -12 -10
-9 -6 4 -8 11 -5 16 9 14 15 11 15 -7z m-206 -30 c-4 -17 0 -32 12 -45 19 -21
18 -21 -16 -15 -19 3 -56 8 -82 11 -27 4 -49 9 -49 13 -5 28 -4 62 3 62 4 0 8
-4 8 -9 0 -5 17 -15 38 -21 20 -7 41 -16 46 -21 6 -5 14 -9 18 -9 12 0 10 28
-3 32 -5 2 -7 11 -4 20 10 27 36 10 29 -18z m901 16 c3 -5 1 -10 -4 -10 -6 0
-11 5 -11 10 0 6 2 10 4 10 3 0 8 -4 11 -10z m510 -18 c-3 -3 -11 0 -18 7 -9
10 -8 11 6 5 10 -3 15 -9 12 -12z m232 -19 c-3 -3 -11 -2 -17 2 -8 5 -7 11 2
22 12 15 13 14 16 -1 2 -10 1 -20 -1 -23z m83 27 c0 -13 -41 -30 -54 -22 -7 4
23 22 52 31 1 1 2 -4 2 -9z m-1884 -28 c-3 -2 6 -13 19 -24 32 -25 31 -38 -4
-66 -16 -12 -35 -37 -42 -55 -7 -17 -18 -35 -25 -40 -10 -5 -9 -14 3 -37 11
-23 12 -34 4 -44 -8 -10 -6 -17 8 -30 11 -10 24 -15 29 -12 5 3 15 -1 22 -9 9
-10 9 -15 1 -15 -11 0 -9 -45 4 -85 7 -20 6 -20 -9 -1 -9 11 -16 15 -16 10 0
-6 -12 -17 -26 -24 -22 -12 -27 -12 -35 0 -8 13 -10 13 -19 0 -7 -12 -10 -8
-10 17 0 17 4 33 9 35 5 2 4 14 -2 28 -25 60 -37 96 -37 114 0 12 -5 16 -15
12 -8 -3 -15 -1 -15 4 0 5 -13 17 -30 27 -23 13 -30 24 -30 49 0 46 23 66 67
58 32 -6 35 -5 29 14 -6 17 -1 21 23 27 17 4 35 4 40 1 12 -8 33 19 31 41 -4
31 0 36 15 23 9 -7 13 -15 11 -18z m244 -19 c0 -25 -12 -30 -28 -10 -6 8 -6
21 0 37 7 20 11 22 18 10 5 -8 10 -25 10 -37z m728 30 c7 -23 -27 -25 -50 -3
l-23 21 34 -3 c19 -2 36 -9 39 -15z m116 11 c17 -7 22 -49 7 -58 -5 -3 -21 4
-36 16 -26 20 -27 22 -9 35 21 15 18 15 38 7z m-406 -36 c-2 -7 2 -12 9 -13
20 0 28 -16 13 -25 -21 -13 -24 -13 -39 11 -11 18 -11 23 1 30 17 11 18 11 16
-3z m197 -16 c-3 -3 -11 0 -18 7 -9 10 -8 11 6 5 10 -3 15 -9 12 -12z m-35 -1
c0 -5 -7 -11 -15 -15 -15 -5 -20 5 -8 17 9 10 23 9 23 -2z m-766 -32 c-3 -5
-10 -7 -15 -3 -5 3 -7 10 -3 15 3 5 10 7 15 3 5 -3 7 -10 3 -15z m70 5 c21
-21 20 -34 -2 -34 -26 0 -56 25 -48 38 10 17 32 15 50 -4z m1746 6 c0 -5 -4
-10 -10 -10 -5 0 -10 5 -10 10 0 6 5 10 10 10 6 0 10 -4 10 -10z m-815 -10
c-3 -5 -11 -10 -16 -10 -6 0 -7 5 -4 10 3 6 11 10 16 10 6 0 7 -4 4 -10z m172
-6 c4 -11 8 -12 13 -4 5 7 9 2 12 -15 4 -17 1 -28 -8 -32 -21 -8 -44 4 -38 20
3 8 -3 17 -13 21 -15 6 -15 8 -3 16 21 14 30 12 37 -6z m748 6 c-3 -5 -10 -10
-16 -10 -5 0 -9 5 -9 10 0 6 7 10 16 10 8 0 12 -4 9 -10z m-1711 -19 c-10 -10
-21 -16 -24 -14 -3 3 4 11 14 19 28 20 33 17 10 -5z m36 -15 c0 -3 -4 -8 -10
-11 -5 -3 -10 -1 -10 4 0 6 5 11 10 11 6 0 10 -2 10 -4z m1103 -11 c-3 -9 -8
-14 -10 -11 -3 3 -2 9 2 15 9 16 15 13 8 -4z m387 -5 c-12 -8 -12 -10 -1 -10
8 0 12 -3 8 -6 -3 -4 -14 -3 -24 0 -15 6 -15 8 -3 16 8 6 20 10 25 10 6 0 3
-5 -5 -10z m-367 -25 c11 5 18 -4 27 -29 6 -20 19 -40 27 -45 14 -7 11 -11
-15 -25 -17 -9 -38 -16 -47 -16 -8 0 -15 -4 -15 -10 0 -11 59 -2 78 13 7 5 15
7 19 3 8 -7 7 -7 -37 -27 -21 -10 -43 -13 -55 -9 -11 4 -35 2 -54 -6 -30 -13
-35 -12 -47 3 -17 22 -18 37 -2 27 8 -5 9 -2 4 11 -6 18 -6 18 12 2 33 -30 42
-21 42 41 0 43 -3 53 -11 42 -9 -13 -10 -13 -5 0 3 8 9 23 12 32 5 15 8 16 29
2 12 -8 29 -12 38 -9z m-645 -4 c11 -7 10 -10 -3 -15 -19 -7 -35 0 -35 15 0
11 20 12 38 0z m-69 -30 c19 -17 21 -23 11 -42 -9 -16 -14 -18 -20 -9 -6 10
-13 8 -31 -8 -22 -21 -22 -22 -4 -42 24 -26 5 -26 -23 0 -28 27 -29 13 0 -17
18 -20 19 -23 5 -23 -9 0 -17 -4 -17 -10 0 -5 7 -10 15 -10 8 0 15 -4 15 -10
0 -23 -29 -7 -41 23 -7 17 -17 35 -23 39 -11 7 8 51 32 76 6 7 12 18 12 24 0
6 3 9 6 5 4 -3 13 0 21 8 18 19 16 19 42 -4z m1161 15 c0 -3 -4 -8 -10 -11 -5
-3 -10 -1 -10 4 0 6 5 11 10 11 6 0 10 -2 10 -4z m-968 -23 c12 -10 18 -12 18
-4 0 8 9 7 29 -5 27 -16 41 -40 41 -71 0 -22 -48 -14 -72 11 -27 29 -72 43
-83 26 -4 -6 -2 -17 4 -24 6 -7 8 -16 4 -19 -10 -10 -35 31 -27 45 4 7 3 8 -4
4 -7 -4 -12 -1 -12 9 0 17 43 38 48 24 2 -5 8 -9 13 -9 4 0 6 7 3 15 -8 20 15
19 38 -2z m-132 -35 c0 -5 -9 -8 -20 -8 -18 0 -19 3 -8 20 9 14 14 16 20 7 4
-7 8 -15 8 -19z m1075 -7 c-3 -6 -11 -11 -17 -11 -6 0 -6 6 2 15 14 17 26 13
15 -4z m-1515 -63 c0 -20 -4 -26 -15 -22 -15 6 -21 55 -8 67 10 11 23 -14 23
-45z m1415 42 c3 -6 -4 -10 -17 -10 -18 0 -20 2 -8 10 19 12 18 12 25 0z
m-963 -32 c-10 -10 -15 -10 -22 2 -6 9 -5 17 3 22 18 11 33 -10 19 -24z m746
10 c-2 -6 -10 -14 -16 -16 -7 -2 -10 2 -6 12 7 18 28 22 22 4z m72 -14 c0 -10
-38 -40 -47 -37 -6 2 -13 -6 -16 -19 -4 -12 -9 -19 -13 -16 -11 11 16 77 34
81 17 3 42 -2 42 -9z m-1110 -19 c-7 -9 -15 -13 -18 -10 -3 2 1 11 8 20 7 9
15 13 18 10 3 -2 -1 -11 -8 -20z m-900 5 c0 -5 -5 -10 -11 -10 -5 0 -7 5 -4
10 3 6 8 10 11 10 2 0 4 -4 4 -10z m1350 6 c0 -3 -4 -8 -10 -11 -5 -3 -10 -1
-10 4 0 6 5 11 10 11 6 0 10 -2 10 -4z m-1100 -14 c0 -4 -5 -13 -12 -20 -10
-10 -7 -16 10 -28 29 -20 19 -34 -24 -34 -40 0 -56 24 -29 44 17 12 17 13 -1
20 -16 6 -16 9 -4 16 18 12 60 13 60 2z m530 -14 c0 -6 -6 -5 -15 2 -8 7 -15
14 -15 16 0 2 7 1 15 -2 8 -4 15 -11 15 -16z m440 -30 c0 -5 -13 1 -30 13 -16
12 -27 26 -24 31 6 10 54 -29 54 -44z m-72 7 c17 -20 32 -41 32 -47 0 -6 -15
5 -33 25 -18 20 -38 37 -45 37 -7 0 -10 5 -7 10 10 16 18 12 53 -25z m772 8
c-1 -20 -16 -31 -30 -22 -13 8 -13 10 0 19 18 12 30 13 30 3z m-900 -18 c14
-17 5 -35 -19 -35 -14 0 -17 6 -13 25 5 28 14 31 32 10z m380 -3 c0 -5 10 -8
21 -8 28 1 88 -107 63 -112 -9 -2 -24 4 -35 14 -18 17 -20 16 -46 -7 -15 -13
-34 -32 -41 -41 -7 -10 -21 -18 -30 -17 -10 0 -12 3 -4 6 6 2 12 11 12 19 0 8
5 14 10 14 6 0 16 11 22 25 6 14 17 24 24 21 14 -5 64 15 64 27 0 4 -7 7 -16
7 -8 0 -12 4 -9 10 3 5 0 7 -8 4 -8 -3 -22 2 -31 11 -18 18 -21 35 -6 35 6 0
10 -4 10 -8z m-730 -27 c-7 -8 -17 -15 -23 -15 -5 0 -2 9 8 20 21 23 35 19 15
-5z m685 15 c13 -6 15 -9 5 -9 -8 0 -22 4 -30 9 -18 12 -2 12 25 0z m-650 -10
c-3 -5 -1 -10 4 -10 13 0 14 -20 2 -39 -5 -8 -16 -11 -30 -6 -26 8 -22 32 4
27 12 -2 16 1 12 11 -3 8 -3 18 0 21 10 10 15 7 8 -4z m1265 -40 c0 -16 5 -30
11 -30 5 0 7 5 4 10 -3 6 -2 10 2 10 5 0 14 -14 21 -32 13 -36 2 -52 -31 -44
-9 2 -15 0 -11 -5 3 -5 1 -9 -4 -9 -5 0 -12 -9 -15 -20 -3 -11 -13 -20 -22
-20 -12 0 -15 -5 -11 -16 3 -9 6 -21 6 -27 0 -6 7 -2 15 9 13 17 14 17 15 2 0
-10 5 -18 11 -18 6 0 9 -16 7 -37 -2 -28 -7 -37 -18 -36 -9 2 -20 -10 -27 -28
-21 -55 -38 -30 -38 55 0 67 3 80 22 98 14 13 19 25 14 32 -15 18 -11 68 5 62
16 -6 19 10 4 19 -17 10 -12 48 5 41 8 -3 15 -1 15 4 0 6 5 10 10 10 6 0 10
-13 10 -30z m-834 -7 c-7 -7 -26 7 -26 19 0 6 6 6 15 -2 9 -7 13 -15 11 -17z
m-129 -34 c-5 -3 -2 -9 7 -12 21 -8 21 -57 1 -57 -8 0 -15 -4 -15 -10 0 -5
-10 -10 -22 -9 -13 0 -17 3 -10 6 6 2 12 9 12 15 0 6 -7 7 -16 4 -15 -6 -15
-4 0 19 9 14 12 25 6 25 -6 0 -3 11 6 25 9 14 12 25 8 25 -5 0 -2 5 6 10 11 7
16 4 21 -13 3 -12 1 -25 -4 -28z m77 12 c-2 -2 6 -9 18 -15 28 -14 35 -65 10
-68 -62 -5 -72 -4 -72 8 0 8 5 14 11 14 7 0 18 8 25 18 13 16 13 16 14 0 0
-22 20 -24 20 -3 0 21 -29 31 -51 16 -12 -7 -19 -7 -19 -1 0 5 5 10 10 10 7 0
7 6 0 19 -17 33 -11 43 14 24 13 -10 22 -20 20 -22z m-614 14 c0 -8 5 -15 10
-15 6 0 21 -9 33 -20 18 -18 20 -22 7 -30 -8 -5 -29 -10 -47 -10 -40 0 -54 22
-39 61 11 30 36 40 36 14z m773 -25 c16 -16 25 -30 20 -30 -5 0 -22 14 -38 30
-16 17 -25 30 -19 30 5 0 22 -13 37 -30z m657 -2 c0 -5 -5 -8 -11 -8 -6 0 -9
-7 -5 -15 3 -9 0 -15 -9 -15 -8 0 -15 7 -15 15 0 8 -7 15 -15 15 -8 0 -15 4
-15 9 0 5 16 9 35 8 19 -1 35 -5 35 -9z m-1560 -8 c0 -5 -9 -10 -21 -10 -11 0
-17 5 -14 10 3 6 13 10 21 10 8 0 14 -4 14 -10z m324 -15 c3 -9 0 -15 -9 -15
-9 0 -12 6 -9 15 4 8 7 15 9 15 2 0 5 -7 9 -15z m1116 1 c8 -2 14 -6 13 -9 -2
-4 -3 -11 -3 -15 0 -5 -39 -36 -86 -68 -47 -32 -92 -63 -99 -68 -10 -8 -8 -16
10 -41 l24 -31 -22 1 c-13 1 -29 5 -36 9 -7 5 -20 1 -30 -8 -15 -14 -20 -14
-38 -1 -11 8 -23 12 -26 9 -3 -3 -11 -3 -17 1 -8 5 -6 13 7 27 17 19 17 20 0
33 -9 6 -17 14 -17 17 0 7 31 3 53 -6 22 -11 37 2 17 14 -13 8 -12 10 3 10 9
0 17 4 17 8 0 5 13 9 30 9 16 0 27 -4 24 -9 -3 -4 -14 -8 -25 -8 -11 0 -17 -4
-14 -10 4 -6 20 -2 43 9 45 24 113 91 91 91 -9 0 -26 -11 -38 -24 -23 -24 -67
-43 -55 -24 16 25 129 98 143 92 9 -3 23 -7 31 -8z m-1430 -36 c0 -5 -7 -10
-15 -10 -8 0 -15 5 -15 10 0 6 7 10 15 10 8 0 15 -4 15 -10z m107 -6 c-3 -3
-12 -4 -19 -1 -8 3 -5 6 6 6 11 1 17 -2 13 -5z m1528 -3 c3 -5 1 -12 -5 -16
-5 -3 -10 1 -10 9 0 18 6 21 15 7z m65 -19 c0 -16 -39 -54 -49 -48 -15 10 -1
36 23 46 27 11 26 11 26 2z m-805 -13 c-9 -13 -14 -62 -8 -72 2 -4 13 -2 23 3
12 6 53 8 105 4 77 -6 84 -9 72 -23 -8 -9 -12 -22 -10 -28 3 -7 1 -13 -4 -14
-78 -6 -112 -12 -134 -20 -31 -12 -63 -63 -56 -90 7 -25 -24 -99 -41 -99 -23
0 -72 30 -72 44 0 7 6 29 14 47 8 19 12 46 9 62 -6 30 13 61 33 53 8 -3 11 0
7 10 -3 7 -14 14 -24 14 -12 0 -19 7 -19 20 0 11 4 20 10 20 5 0 7 7 3 16 -5
14 -3 14 15 3 26 -17 39 -5 21 18 -11 15 -10 15 9 -1 22 -19 22 -19 22 0 0 11
5 25 12 32 15 15 21 16 13 1z m165 5 c0 -14 -22 -45 -40 -54 -26 -14 -45 -3
-29 16 6 7 14 12 18 9 4 -2 14 5 21 16 14 18 30 26 30 13z m-985 -24 c3 -5 -1
-10 -10 -10 -9 0 -13 5 -10 10 3 6 8 10 10 10 2 0 7 -4 10 -10z m1360 -32 c14
-6 25 -15 25 -20 0 -14 -52 -31 -105 -35 -27 -1 -59 -4 -69 -5 -10 -2 -21 4
-24 12 -5 13 -3 13 13 0 17 -14 18 -13 12 4 -6 16 -5 17 8 6 8 -7 15 -8 15 -2
0 9 76 52 92 52 4 0 19 -5 33 -12z m202 -114 c-3 -3 -12 -4 -19 -1 -8 3 -5 6
6 6 11 1 17 -2 13 -5z m-260 -56 c4 10 8 10 19 1 10 -8 14 -8 14 0 0 6 12 11
27 11 25 0 26 -1 8 -14 -10 -7 -28 -13 -39 -12 -12 1 -24 -3 -27 -8 -4 -5 -23
-6 -44 -2 -33 6 -36 10 -31 31 5 20 3 23 -11 18 -16 -6 -16 -5 -4 11 13 16 17
15 49 -16 23 -22 36 -29 39 -20z m424 32 c0 8 4 4 8 -10 4 -14 6 -27 4 -29 -6
-8 -42 32 -37 41 4 6 10 5 15 -3 7 -12 9 -11 10 1z m-164 -15 c3 -9 3 -19 -1
-22 -8 -9 -37 18 -30 28 8 14 24 11 31 -6z m-307 -95 c0 -16 -4 -31 -9 -34
-11 -7 -35 49 -27 63 12 19 36 -1 36 -29z m680 30 c0 -5 -2 -10 -4 -10 -3 0
-8 5 -11 10 -3 6 -1 10 4 10 6 0 11 -4 11 -10z m-177 -7 c-7 -2 -21 -2 -30 0
-10 3 -4 5 12 5 17 0 24 -2 18 -5z m-1043 -73 c0 -5 -2 -10 -4 -10 -3 0 -8 5
-11 10 -3 6 -1 10 4 10 6 0 11 -4 11 -10z m-351 -67 c19 -13 30 -23 25 -23
-11 0 -84 49 -84 56 0 6 9 1 59 -33z m151 -100 c0 -7 -39 17 -46 28 -3 6 5 3
20 -6 14 -10 26 -19 26 -22z m694 21 c18 -7 12 -24 -10 -24 -8 0 -14 7 -14 15
0 17 2 18 24 9z"/>
<path d="M2570 4080 c-10 -18 -9 -24 1 -31 8 -5 17 -9 22 -9 10 0 9 32 -2 49
-7 11 -11 9 -21 -9z"/>
<path d="M2643 3990 c-7 -18 -7 -32 -2 -36 8 -5 29 35 29 57 0 20 -16 7 -27
-21z"/>
<path d="M2200 3645 c-11 -13 -7 -14 28 -9 24 3 43 1 47 -5 7 -13 62 -15 69
-2 3 4 -6 6 -19 3 -25 -4 -35 12 -12 21 6 3 -13 6 -44 6 -39 1 -60 -4 -69 -14z"/>
<path d="M2230 3599 c0 -11 22 -17 43 -11 27 7 20 19 -13 19 -16 0 -30 -4 -30
-8z"/>
<path d="M2170 3590 c-12 -7 -12 -10 -1 -10 7 0 11 -6 8 -14 -6 -15 36 -31 53
-21 22 13 10 32 -17 27 -21 -4 -25 -2 -20 12 7 18 -1 20 -23 6z"/>
<path d="M2125 3510 c-3 -5 -2 -10 4 -10 5 0 13 5 16 10 3 6 2 10 -4 10 -5 0
-13 -4 -16 -10z"/>
<path d="M2136 3392 c-3 -6 -1 -14 5 -17 15 -10 25 3 12 16 -7 7 -13 7 -17 1z"/>
<path d="M1990 3345 c0 -8 9 -15 20 -15 24 0 27 15 4 24 -22 9 -24 8 -24 -9z"/>
<path d="M2080 3299 c0 -5 5 -7 10 -4 6 3 10 8 10 11 0 2 -4 4 -10 4 -5 0 -10
-5 -10 -11z"/>
<path d="M2096 3285 c-20 -15 -14 -35 11 -35 9 0 13 6 10 14 -3 8 -1 16 6 19
6 2 7 6 1 9 -5 4 -17 0 -28 -7z"/>
<path d="M2510 3046 c0 -2 8 -10 18 -17 15 -13 16 -12 3 4 -13 16 -21 21 -21
13z"/>
<path d="M2136 4261 c-4 -7 -5 -15 -2 -18 9 -9 19 4 14 18 -4 11 -6 11 -12 0z"/>
<path d="M2140 4182 c0 -36 9 -45 26 -27 18 18 18 25 -1 25 -9 0 -12 6 -9 15
4 8 1 15 -5 15 -6 0 -11 -13 -11 -28z"/>
<path d="M1731 3944 c0 -11 3 -14 6 -6 3 7 2 16 -1 19 -3 4 -6 -2 -5 -13z"/>
<path d="M1676 3884 c-10 -25 1 -29 14 -5 6 12 7 21 1 21 -5 0 -12 -7 -15 -16z"/>
<path d="M1995 2830 c3 -5 8 -10 11 -10 2 0 4 5 4 10 0 6 -5 10 -11 10 -5 0
-7 -4 -4 -10z"/>
<path d="M2167 2803 c-4 -3 -7 -11 -7 -17 0 -6 5 -5 12 2 6 6 9 14 7 17 -3 3
-9 2 -12 -2z"/>
<path d="M1885 2780 c-3 -5 -1 -10 4 -10 6 0 11 5 11 10 0 6 -2 10 -4 10 -3 0
-8 -4 -11 -10z"/>
<path d="M2117 2759 c7 -7 15 -10 18 -7 3 3 -2 9 -12 12 -14 6 -15 5 -6 -5z"/>
<path d="M1875 2710 c3 -5 11 -10 16 -10 6 0 7 5 4 10 -3 6 -11 10 -16 10 -6
0 -7 -4 -4 -10z"/>
<path d="M1470 2655 c-8 -9 -8 -15 -2 -15 12 0 26 19 19 26 -2 2 -10 -2 -17
-11z"/>
<path d="M1451 2414 c0 -11 3 -14 6 -6 3 7 2 16 -1 19 -3 4 -6 -2 -5 -13z"/>
<path d="M1450 2371 c0 -5 5 -13 10 -16 6 -3 10 -2 10 4 0 5 -4 13 -10 16 -5
3 -10 2 -10 -4z"/>
<path d="M1540 2240 c0 -5 5 -10 10 -10 6 0 10 5 10 10 0 6 -4 10 -10 10 -5 0
-10 -4 -10 -10z"/>
<path d="M1700 2235 c0 -16 16 -20 24 -6 3 5 -1 11 -9 15 -9 3 -15 0 -15 -9z"/>
<path d="M1610 2190 c0 -5 7 -10 16 -10 8 0 12 5 9 10 -3 6 -10 10 -16 10 -5
0 -9 -4 -9 -10z"/>
<path d="M2706 2244 c-9 -24 -2 -26 12 -4 7 11 8 20 3 20 -5 0 -12 -7 -15 -16z"/>
<path d="M1264 2088 c-3 -4 4 -8 15 -8 12 0 21 4 21 8 0 5 -7 9 -15 9 -9 0
-18 -4 -21 -9z"/>
<path d="M1390 2065 c0 -8 2 -15 4 -15 2 0 6 7 10 15 3 8 1 15 -4 15 -6 0 -10
-7 -10 -15z"/>
<path d="M1402 2008 c2 -6 10 -14 16 -16 7 -2 10 2 6 12 -7 18 -28 22 -22 4z"/>
<path d="M1380 1965 c0 -8 5 -15 10 -15 6 0 10 7 10 15 0 8 -4 15 -10 15 -5 0
-10 -7 -10 -15z"/>
<path d="M775 2020 c-3 -6 1 -7 9 -4 18 7 21 14 7 14 -6 0 -13 -4 -16 -10z"/>
<path d="M1820 1884 c0 -24 19 -54 34 -54 23 0 27 29 6 50 -24 24 -40 26 -40
4z"/>
<path d="M2395 1420 c-3 -5 -1 -10 4 -10 6 0 11 5 11 10 0 6 -2 10 -4 10 -3 0
-8 -4 -11 -10z"/>
<path d="M2013 1442 c-7 -4 -8 -13 -4 -20 6 -10 10 -10 20 2 13 16 2 29 -16
18z"/>
<path d="M1658 1443 c7 -3 16 -2 19 1 4 3 -2 6 -13 5 -11 0 -14 -3 -6 -6z"/>
<path d="M1703 1419 c-9 -9 -8 -15 0 -24 14 -15 37 -1 37 21 0 17 -22 18 -37
3z"/>
<path d="M2935 4486 c44 -8 98 -16 120 -20 38 -5 38 -5 -8 8 -26 8 -80 16
-120 19 l-72 6 80 -13z"/>
<path d="M3214 4429 c65 -16 121 -28 123 -26 5 6 -199 57 -222 56 -11 0 34
-14 99 -30z"/>
<path d="M1304 4426 c-10 -8 -17 -16 -14 -19 3 -2 14 4 24 14 23 22 18 25 -10
5z"/>
<path d="M1196 4389 c-28 -10 -54 -25 -58 -34 -5 -8 -16 -15 -23 -15 -8 0 -15
-5 -15 -11 0 -7 7 -8 18 -4 9 3 38 11 64 17 34 8 49 18 57 36 7 13 10 26 9 27
-2 2 -25 -5 -52 -16z"/>
<path d="M3405 4379 c32 -10 61 -16 63 -14 5 4 -97 35 -112 34 -6 0 16 -9 49
-20z"/>
<path d="M3010 4350 c-13 -8 -12 -10 3 -10 9 0 17 5 17 10 0 12 -1 12 -20 0z"/>
<path d="M3040 4334 c0 -8 5 -12 10 -9 6 3 10 10 10 16 0 5 -4 9 -10 9 -5 0
-10 -7 -10 -16z"/>
<path d="M3080 4335 c7 -9 15 -13 17 -11 7 7 -7 26 -19 26 -6 0 -6 -6 2 -15z"/>
<path d="M2931 4314 c0 -11 3 -14 6 -6 3 7 2 16 -1 19 -3 4 -6 -2 -5 -13z"/>
<path d="M3706 4265 c6 -15 145 -73 163 -67 12 4 -92 58 -141 72 -20 6 -25 5
-22 -5z"/>
<path d="M3277 4218 c-3 -11 0 -18 9 -18 8 0 14 -8 14 -17 0 -15 4 -13 20 7
26 33 25 37 -9 42 -22 3 -31 0 -34 -14z"/>
<path d="M3340 4141 c0 -5 7 -17 16 -25 10 -10 13 -24 9 -38 -6 -18 -5 -20 5
-11 7 6 20 9 29 5 9 -3 2 11 -17 36 -35 43 -42 49 -42 33z"/>
<path d="M2946 4111 c-29 -15 -31 -20 -30 -66 0 -36 4 -49 13 -47 9 2 12 -4 8
-18 -3 -11 -1 -20 4 -20 5 0 9 6 9 13 0 6 8 2 18 -10 13 -16 22 -19 40 -12 23
9 30 33 12 44 -16 10 -12 25 8 25 25 0 44 46 30 75 -13 30 -68 37 -112 16z
m16 -73 c-7 -7 -12 -8 -12 -2 0 6 3 14 7 17 3 4 9 5 12 2 2 -3 -1 -11 -7 -17z"/>
<path d="M4180 4038 c51 -31 85 -47 88 -40 2 7 25 12 58 12 60 0 67 8 27 31
-21 12 -43 14 -88 9 -50 -5 -68 -2 -107 17 -76 37 -68 27 22 -29z"/>
<path d="M4130 4036 c0 -7 93 -57 97 -52 2 2 -17 15 -43 30 -47 26 -54 29 -54
22z"/>
<path d="M3944 4003 c-8 -21 -9 -16 10 -68 11 -28 15 -34 16 -17 0 16 6 22 21
22 15 0 19 -4 15 -16 -4 -11 -1 -14 11 -12 27 5 27 32 1 72 -25 39 -61 48 -74
19z"/>
<path d="M4290 3981 c0 -9 48 -36 54 -30 3 2 -9 12 -25 21 -16 9 -29 14 -29 9z"/>
<path d="M4120 3941 c0 -5 5 -13 10 -16 6 -3 10 -2 10 4 0 5 -4 13 -10 16 -5
3 -10 2 -10 -4z"/>
<path d="M2980 3860 c0 -5 5 -10 10 -10 6 0 10 5 10 10 0 6 -4 10 -10 10 -5 0
-10 -4 -10 -10z"/>
<path d="M3676 3862 c-3 -6 -1 -14 5 -17 15 -10 25 3 12 16 -7 7 -13 7 -17 1z"/>
<path d="M489 3848 c0 -2 -3 -26 -5 -54 -3 -50 -3 -51 21 -46 15 2 22 9 18 16
-4 6 -8 25 -9 41 -3 44 -3 45 -14 45 -5 0 -10 -1 -11 -2z"/>
<path d="M3891 3778 c0 -9 -7 -18 -13 -21 -7 -2 -11 -7 -8 -10 11 -12 32 11
27 29 -4 15 -5 16 -6 2z"/>
<path d="M3857 3663 c-7 -36 0 -43 12 -12 5 13 10 18 10 11 1 -18 21 -5 21 14
0 27 -37 16 -43 -13z"/>
<path d="M240 3598 c0 -40 0 -41 20 -23 11 10 20 27 20 38 0 21 0 21 -16 1
-15 -19 -15 -18 -11 4 3 12 1 22 -4 22 -5 0 -9 -19 -9 -42z"/>
<path d="M427 3623 c4 -10 2 -14 -4 -10 -6 4 -24 0 -39 -9 l-29 -15 35 6 c66
12 72 15 59 31 -16 19 -30 18 -22 -3z"/>
<path d="M420 3551 c0 -15 7 -19 30 -19 29 1 33 18 4 18 -8 0 -14 5 -14 10 0
6 -4 10 -10 10 -5 0 -10 -9 -10 -19z"/>
<path d="M386 3503 c-14 -7 -26 -10 -26 -6 0 4 -15 -7 -32 -24 -18 -17 -46
-34 -63 -38 l-30 -9 35 -5 c25 -4 38 -14 50 -36 8 -16 16 -32 18 -34 1 -3 8 1
14 7 9 9 9 12 1 12 -11 0 -23 25 -29 58 -6 33 101 83 125 59 8 -8 11 -6 11 5
0 21 -42 28 -74 11z"/>
<path d="M200 3347 c-6 -23 -13 -50 -16 -60 -3 -10 1 -20 10 -23 9 -3 16 -14
16 -23 1 -14 2 -14 11 2 6 10 8 23 6 30 -2 7 2 20 10 29 18 20 9 73 -12 82
-10 4 -18 -7 -25 -37z"/>
<path d="M940 3230 c0 -5 5 -10 11 -10 5 0 7 5 4 10 -3 6 -8 10 -11 10 -2 0
-4 -4 -4 -10z"/>
<path d="M230 3184 c0 -3 11 -15 25 -26 24 -19 24 -21 9 -49 -9 -18 -21 -29
-29 -25 -7 2 -16 -3 -20 -12 -3 -9 -1 -18 4 -20 6 -2 8 -8 5 -14 -4 -6 1 -8
15 -3 15 5 21 2 21 -9 0 -9 -8 -16 -17 -17 -14 0 -13 -3 5 -12 19 -8 25 -8 33
4 15 23 6 54 -15 51 -19 -3 -16 7 10 38 11 14 18 41 15 66 -1 15 -61 42 -61
28z"/>
<path d="M4790 3181 c0 -5 6 -14 14 -20 11 -9 16 -9 21 0 4 6 1 15 -6 20 -18
11 -29 11 -29 0z"/>
<path d="M984 3133 c4 -12 2 -24 -4 -28 -16 -10 -12 -42 7 -49 22 -9 43 18 36
44 -3 10 -14 27 -25 37 -20 18 -20 17 -14 -4z"/>
<path d="M140 3110 c0 -21 4 -28 14 -24 20 8 27 42 9 48 -22 9 -23 8 -23 -24z"/>
<path d="M205 3120 c-4 -6 -4 -10 -1 -10 2 0 11 -3 20 -6 9 -3 16 -2 16 4 0
14 -28 23 -35 12z"/>
<path d="M4938 3118 c7 -7 12 -20 12 -30 0 -10 4 -18 9 -18 5 0 12 -8 14 -17
3 -10 5 -2 6 18 1 37 -13 59 -38 59 -12 0 -12 -3 -3 -12z"/>
<path d="M584 3109 c-10 -17 13 -36 27 -22 12 12 4 33 -11 33 -5 0 -12 -5 -16
-11z"/>
<path d="M4637 3113 c-4 -3 -7 -15 -7 -26 0 -19 1 -19 20 -2 11 10 17 22 14
26 -6 11 -18 12 -27 2z"/>
<path d="M882 3099 c2 -7 10 -15 17 -17 8 -3 12 1 9 9 -2 7 -10 15 -17 17 -8
3 -12 -1 -9 -9z"/>
<path d="M1093 3039 c-1 -22 -9 -47 -18 -55 -15 -15 -19 -15 -57 0 -48 19 -56
15 -36 -16 16 -25 17 -66 3 -89 -5 -7 -10 -40 -10 -71 0 -31 3 -51 7 -45 4 7
8 29 8 50 0 20 4 45 9 55 6 9 12 30 16 45 4 21 13 29 35 34 16 3 35 11 41 19
8 9 17 10 36 3 20 -7 28 -6 35 3 14 24 7 43 -31 75 l-37 32 -1 -40z"/>
<path d="M4706 3031 c-25 -17 -26 -20 -10 -24 11 -3 42 -5 71 -4 38 0 50 4 43
12 -6 7 -7 15 -3 18 12 13 -8 7 -32 -9 -24 -16 -25 -15 -25 5 0 26 -7 26 -44
2z"/>
<path d="M4965 3010 c-3 -5 -1 -10 4 -10 6 0 11 5 11 10 0 6 -2 10 -4 10 -3 0
-8 -4 -11 -10z"/>
<path d="M213 2983 c-9 -3 -6 -11 7 -26 11 -11 20 -31 20 -44 0 -33 17 -20 22
17 3 16 2 28 0 25 -2 -2 -12 4 -21 14 -9 11 -21 17 -28 14z"/>
<path d="M4867 2980 c-3 -8 -10 -30 -16 -49 l-11 -34 23 24 c13 13 32 30 43
37 18 12 18 12 -3 7 -15 -4 -23 -1 -26 12 -3 15 -5 15 -10 3z"/>
<path d="M4939 2953 c-13 -16 -12 -17 4 -4 16 13 21 21 13 21 -2 0 -10 -8 -17
-17z"/>
<path d="M1040 2925 c0 -8 4 -15 10 -15 5 0 7 7 4 15 -4 8 -8 15 -10 15 -2 0
-4 -7 -4 -15z"/>
<path d="M122 2905 c0 -16 2 -22 5 -12 2 9 2 23 0 30 -3 6 -5 -1 -5 -18z"/>
<path d="M1080 2922 c0 -5 7 -15 15 -22 8 -7 15 -8 15 -2 0 5 -7 15 -15 22 -8
7 -15 8 -15 2z"/>
<path d="M203 2894 c-15 -16 -16 -24 -4 -24 8 0 24 30 19 35 -2 2 -9 -3 -15
-11z"/>
<path d="M850 2880 c0 -5 4 -10 9 -10 6 0 13 5 16 10 3 6 -1 10 -9 10 -9 0
-16 -4 -16 -10z"/>
<path d="M245 2870 c3 -5 10 -10 16 -10 5 0 9 5 9 10 0 6 -7 10 -16 10 -8 0
-12 -4 -9 -10z"/>
<path d="M121 2854 c0 -11 3 -14 6 -6 3 7 2 16 -1 19 -3 4 -6 -2 -5 -13z"/>
<path d="M476 2845 c-11 -8 -28 -13 -38 -9 -43 13 -71 -26 -73 -105 0 -37 3
-45 23 -52 34 -13 42 -11 42 9 0 9 10 22 23 27 12 6 21 16 20 23 -2 7 4 12 13
12 11 0 15 6 11 20 -3 13 0 20 10 20 10 0 12 -6 8 -20 -5 -15 -2 -20 13 -20
15 0 18 6 14 33 -5 32 -29 77 -41 77 -3 0 -15 -7 -25 -15z m-19 -32 c-4 -3 -2
-12 4 -20 9 -10 8 -13 -4 -13 -19 0 -30 27 -14 34 18 7 21 7 14 -1z"/>
<path d="M199 2822 c5 -10 17 -24 25 -31 12 -10 15 -9 13 7 0 12 -6 18 -14 15
-7 -3 -13 2 -13 11 0 9 -5 16 -10 16 -7 0 -7 -6 -1 -18z"/>
<path d="M4960 2800 c0 -5 5 -10 10 -10 6 0 10 5 10 10 0 6 -4 10 -10 10 -5 0
-10 -4 -10 -10z"/>
<path d="M180 2784 c0 -8 5 -12 10 -9 6 3 10 10 10 16 0 5 -4 9 -10 9 -5 0
-10 -7 -10 -16z"/>
<path d="M4913 2769 c-23 -8 -30 -24 -15 -33 10 -6 45 21 41 32 -3 6 -13 6
-26 1z"/>
<path d="M4971 2764 c0 -11 3 -14 6 -6 3 7 2 16 -1 19 -3 4 -6 -2 -5 -13z"/>
<path d="M1069 2756 c8 -10 9 -16 1 -21 -13 -8 -13 -55 0 -55 5 0 22 10 36 23
30 25 49 57 36 57 -6 0 -13 -10 -16 -22 -7 -22 -7 -22 -15 -3 -5 11 -7 23 -4
28 2 4 -8 7 -23 7 -22 0 -24 -3 -15 -14z"/>
<path d="M4472 2730 c-6 -11 -12 -28 -12 -37 0 -27 24 -68 39 -68 8 0 16 -6
19 -12 5 -16 -10 -17 -25 -2 -14 14 -48 -34 -39 -56 8 -21 23 -19 31 5 10 31
28 24 21 -7 -4 -16 -10 -40 -13 -55 -3 -16 -9 -28 -14 -28 -16 0 -10 -18 15
-44 22 -24 24 -25 38 -8 9 9 13 23 11 30 -3 6 0 12 5 12 6 0 19 -30 30 -67 21
-66 21 -92 1 -63 -8 11 -9 8 -5 -12 3 -14 9 -34 12 -45 5 -15 4 -15 -7 2 -7
11 -28 36 -46 55 -29 31 -33 33 -33 14 0 -12 9 -28 20 -35 10 -8 21 -27 24
-42 3 -15 14 -43 26 -62 13 -21 17 -36 10 -40 -6 -3 -8 -11 -4 -16 3 -5 10 -7
15 -3 6 3 7 -4 4 -19 -4 -14 -2 -28 3 -31 19 -11 22 11 11 69 -10 52 -9 59 11
80 l21 22 -26 76 c-14 41 -25 81 -25 87 0 21 18 0 25 -29 9 -42 31 -58 39 -29
9 34 8 38 -12 38 -14 0 -17 8 -17 41 0 27 -6 45 -18 54 -9 7 -17 23 -17 36 -1
26 -38 113 -39 91 -1 -7 3 -21 8 -30 4 -9 11 -29 15 -44 l6 -27 -27 25 c-18
16 -23 28 -16 32 23 15 -18 162 -46 162 -3 0 -12 -9 -19 -20z m117 -260 c1
-13 0 -13 -9 0 -5 8 -9 24 -9 35 l0 20 9 -20 c5 -11 9 -27 9 -35z m-42 8 c-3
-8 -6 -5 -6 6 -1 11 2 17 5 13 3 -3 4 -12 1 -19z m-17 -49 c0 -6 -4 -7 -10 -4
-5 3 -10 11 -10 16 0 6 5 7 10 4 6 -3 10 -11 10 -16z"/>
<path d="M4780 2720 c-10 -6 -2 -7 25 -3 49 7 58 13 19 13 -16 0 -36 -5 -44
-10z"/>
<path d="M41 2684 c0 -11 3 -14 6 -6 3 7 2 16 -1 19 -3 4 -6 -2 -5 -13z"/>
<path d="M4968 2665 c-3 -14 -1 -28 3 -31 5 -3 9 9 9 25 0 38 -6 40 -12 6z"/>
<path d="M216 2655 c-3 -9 0 -15 9 -15 16 0 20 16 6 24 -5 3 -11 -1 -15 -9z"/>
<path d="M50 2644 c0 -8 5 -12 10 -9 6 3 10 10 10 16 0 5 -4 9 -10 9 -5 0 -10
-7 -10 -16z"/>
<path d="M60 2610 c0 -5 4 -10 10 -10 5 0 8 -13 6 -29 -3 -27 9 -130 16 -136
2 -1 14 -6 27 -10 22 -7 23 -5 17 16 -4 13 -9 54 -11 91 -1 37 -6 71 -10 77
-8 14 -55 14 -55 1z"/>
<path d="M4961 2603 c0 -5 4 -17 9 -28 8 -18 9 -17 9 8 1 15 -3 27 -9 27 -5 0
-10 -3 -9 -7z"/>
<path d="M780 2572 c0 -5 12 -19 26 -33 l26 -24 -19 32 c-17 31 -33 43 -33 25z"/>
<path d="M644 2535 c-23 -30 -31 -31 -39 -5 -4 11 -11 18 -16 15 -14 -9 -11
-27 4 -19 6 4 3 -2 -7 -14 -24 -27 -26 -27 -18 1 5 21 5 21 -12 4 -18 -18 -37
-105 -20 -94 5 3 18 -1 28 -9 17 -12 17 -14 3 -20 -10 -3 -17 -17 -17 -32 l0
-26 20 22 c12 12 23 22 26 22 10 0 29 -25 32 -42 3 -21 -8 -23 -27 -5 -9 7
-11 7 -8 1 4 -7 0 -14 -8 -18 -12 -4 -13 -10 -4 -29 10 -23 13 -24 39 -10 30
15 45 39 30 48 -20 12 -9 25 15 19 49 -12 105 69 84 123 -9 23 -70 93 -82 93
-2 0 -13 -11 -23 -25z m-11 -120 c-3 -8 -9 -15 -14 -15 -10 0 -12 24 -3 33 11
11 24 -3 17 -18z"/>
<path d="M4963 2510 c0 -16 4 -27 9 -24 4 3 8 16 8 30 0 13 -4 24 -8 24 -5 0
-9 -13 -9 -30z"/>
<path d="M4461 2514 c0 -11 3 -14 6 -6 3 7 2 16 -1 19 -3 4 -6 -2 -5 -13z"/>
<path d="M4376 2484 c-3 -9 -6 -24 -6 -35 0 -10 -4 -19 -9 -19 -5 0 -11 -12
-14 -27 -3 -16 -9 -36 -13 -47 -5 -14 -3 -17 11 -15 16 4 64 113 65 147 0 18
-27 15 -34 -4z"/>
<path d="M4325 2478 c-10 -26 2 -55 17 -40 8 8 8 18 1 34 -10 21 -12 21 -18 6z"/>
<path d="M4107 2463 c-11 -10 -8 -43 3 -43 6 0 10 11 10 25 0 26 -2 29 -13 18z"/>
<path d="M4438 2435 c2 -14 13 -30 24 -36 18 -10 19 -8 13 13 -15 47 -46 67
-37 23z"/>
<path d="M222 2410 c0 -14 2 -19 5 -12 2 6 2 18 0 25 -3 6 -5 1 -5 -13z"/>
<path d="M4406 2421 c-4 -7 -5 -15 -2 -18 9 -9 19 4 14 18 -4 11 -6 11 -12 0z"/>
<path d="M4126 2384 c-4 -9 -1 -23 5 -30 6 -7 8 -26 4 -43 -5 -23 -1 -35 14
-50 27 -27 35 -26 55 4 12 19 14 30 6 51 -6 15 -8 29 -5 32 9 9 -37 52 -56 52
-9 0 -20 -7 -23 -16z"/>
<path d="M155 2381 c-3 -5 -1 -12 5 -16 5 -3 10 1 10 9 0 18 -6 21 -15 7z"/>
<path d="M4696 2372 c-4 -12 -5 -31 -1 -41 4 -14 0 -21 -15 -26 -13 -4 -20
-15 -20 -32 0 -30 51 -124 58 -105 6 20 -7 63 -18 57 -6 -3 -15 6 -20 20 -13
33 -13 38 0 30 6 -3 13 0 16 9 3 8 12 12 21 9 13 -5 15 0 9 33 -11 56 -22 73
-30 46z"/>
<path d="M191 2354 c0 -11 3 -14 6 -6 3 7 2 16 -1 19 -3 4 -6 -2 -5 -13z"/>
<path d="M4736 2335 c9 -38 26 -73 31 -60 2 6 -6 29 -17 50 -18 36 -19 37 -14
10z"/>
<path d="M227 2330 c-3 -11 -2 -18 3 -15 4 3 10 -2 14 -10 3 -8 10 -15 16 -15
16 0 12 26 -9 44 -17 16 -19 16 -24 -4z"/>
<path d="M160 2325 c0 -8 5 -15 10 -15 6 0 10 7 10 15 0 8 -4 15 -10 15 -5 0
-10 -7 -10 -15z"/>
<path d="M3210 2300 c0 -5 5 -10 10 -10 6 0 10 5 10 10 0 6 -4 10 -10 10 -5 0
-10 -4 -10 -10z"/>
<path d="M3925 2280 c-19 -36 -19 -35 5 -37 11 -1 20 2 20 8 0 5 -5 9 -11 9
-7 0 -5 10 5 25 9 14 12 25 6 25 -5 0 -16 -13 -25 -30z"/>
<path d="M4925 2253 c-9 -25 -12 -133 -2 -133 4 0 7 5 7 10 0 6 8 10 18 8 10
-2 17 3 17 14 0 9 4 20 8 24 4 4 7 16 7 27 0 16 -2 17 -15 7 -19 -15 -28 -9
-19 14 3 9 11 13 18 9 6 -3 2 3 -8 15 -23 26 -22 26 -31 5z"/>
<path d="M3246 2251 c-18 -7 -18 -8 4 -14 27 -7 39 -1 24 12 -5 5 -18 5 -28 2z"/>
<path d="M3363 2240 c-80 -21 -113 -36 -113 -50 0 -15 -17 -12 -35 6 -8 9 -22
13 -30 10 -26 -10 -16 -26 15 -26 27 0 30 -3 30 -32 0 -18 -5 -50 -11 -71 -9
-35 -8 -41 20 -76 21 -26 56 -51 106 -74 45 -22 75 -42 75 -51 0 -29 80 -51
95 -26 3 6 14 10 24 10 11 0 24 12 31 30 12 29 30 41 30 20 0 -5 6 -10 13 -10
8 0 24 -11 37 -25 18 -19 34 -25 67 -25 24 0 43 -4 43 -10 0 -14 30 -1 65 28
17 14 30 33 30 43 0 9 3 21 8 25 14 14 7 55 -10 61 -10 4 -37 22 -60 41 -48
39 -49 38 -27 -18 19 -47 15 -57 -16 -40 -11 6 -30 8 -41 5 -19 -6 -20 -5 -9
15 9 17 9 29 0 48 -10 22 -9 28 6 39 12 9 13 13 4 13 -10 0 -9 5 4 19 21 23
13 29 -47 35 -44 4 -87 23 -87 38 0 4 -19 21 -42 38 -48 35 -74 37 -175 10z
m203 -176 c-3 -9 -6 -18 -6 -20 0 -2 -4 -4 -9 -4 -5 0 -7 9 -4 20 3 11 10 20
15 20 6 0 7 -7 4 -16z m84 -4 c12 0 20 -39 9 -46 -5 -3 -7 -10 -4 -15 11 -16
-3 -10 -27 14 -26 24 -27 62 -1 53 8 -3 18 -6 23 -6z m160 -130 c0 -5 -7 -10
-16 -10 -8 0 -12 5 -9 10 3 6 10 10 16 10 5 0 9 -4 9 -10z"/>
<path d="M370 2240 c0 -5 14 -10 31 -10 17 0 28 4 24 10 -3 6 -17 10 -31 10
-13 0 -24 -4 -24 -10z"/>
<path d="M3682 2239 c2 -6 8 -10 13 -10 5 0 11 4 13 10 2 6 -4 11 -13 11 -9 0
-15 -5 -13 -11z"/>
<path d="M4395 2222 c-6 -4 -12 -19 -13 -34 -1 -20 2 -26 13 -22 9 4 15 19 15
35 0 32 0 32 -15 21z"/>
<path d="M4511 2216 c-6 -7 -8 -21 -5 -31 7 -17 8 -17 21 1 24 33 10 62 -16
30z"/>
<path d="M4634 2215 c-4 -11 -8 -23 -10 -26 -2 -3 13 -21 33 -40 21 -19 31
-26 24 -17 -7 9 -10 26 -7 36 4 12 -1 29 -13 43 -19 23 -20 23 -27 4z"/>
<path d="M3750 2202 c0 -11 11 -24 25 -30 14 -6 25 -16 25 -22 0 -5 4 -10 9
-10 17 0 5 27 -23 53 -34 32 -36 32 -36 9z"/>
<path d="M3720 2200 c0 -5 5 -10 10 -10 6 0 10 5 10 10 0 6 -4 10 -10 10 -5 0
-10 -4 -10 -10z"/>
<path d="M3978 2190 c-11 -17 -24 -20 -80 -20 l-68 0 38 -34 c21 -19 41 -31
47 -26 5 4 28 11 50 15 22 4 43 12 47 18 5 8 11 7 21 -2 13 -10 15 -8 13 14 0
14 -5 25 -11 25 -16 -1 -45 -26 -38 -33 3 -4 1 -7 -5 -7 -22 0 -23 20 0 29 13
6 17 10 9 10 -7 1 -11 7 -7 16 8 21 -2 19 -16 -5z"/>
<path d="M4733 2138 c3 -9 1 -19 -6 -21 -7 -3 -2 -4 11 -4 26 1 28 10 5 28
-15 12 -16 12 -10 -3z"/>
<path d="M4270 2107 c0 -20 4 -37 10 -37 5 0 7 14 3 33 -8 45 -13 47 -13 4z"/>
<path d="M4630 2041 c0 -12 11 -33 24 -46 13 -13 22 -26 19 -29 -3 -2 4 -2 15
1 30 7 54 37 46 57 -4 10 -13 15 -21 12 -8 -3 -11 -1 -8 4 3 6 -2 10 -12 10
-10 0 -28 3 -40 6 -19 5 -23 2 -23 -15z m55 -31 c-3 -5 -12 -10 -18 -10 -7 0
-6 4 3 10 19 12 23 12 15 0z"/>
<path d="M4328 2034 c13 -9 26 -13 30 -9 8 8 -17 25 -38 25 -9 0 -6 -6 8 -16z"/>
<path d="M4007 1979 c7 -7 15 -10 18 -7 3 3 -2 9 -12 12 -14 6 -15 5 -6 -5z"/>
<path d="M4530 1966 c14 -15 23 -31 21 -34 -3 -4 17 -22 44 -40 47 -32 64 -31
52 3 -3 7 -30 29 -59 47 -80 52 -85 53 -58 24z"/>
<path d="M4117 1942 c-28 -29 -38 -53 -12 -32 8 6 19 9 24 5 13 -8 51 12 51
27 0 6 -3 8 -7 5 -3 -4 -11 0 -17 9 -10 13 -15 11 -39 -14z"/>
<path d="M460 1923 c0 -10 7 -12 23 -8 14 4 18 3 9 -3 -10 -7 -10 -11 3 -22
23 -19 39 0 21 25 -16 22 -56 28 -56 8z"/>
<path d="M536 1844 c-8 -22 4 -40 15 -23 11 18 11 39 0 39 -5 0 -12 -7 -15
-16z"/>
<path d="M4867 1759 c7 -7 27 -18 45 -24 18 -7 41 -16 51 -20 12 -5 17 -3 17
9 0 20 -31 36 -83 42 -33 4 -39 3 -30 -7z"/>
<path d="M2835 1720 c-8 -12 2 -30 17 -30 6 0 8 3 5 7 -4 3 -2 12 4 20 9 10 8
13 -4 13 -9 0 -19 -4 -22 -10z"/>
<path d="M4022 1685 c0 -16 2 -22 5 -12 2 9 2 23 0 30 -3 6 -5 -1 -5 -18z"/>
<path d="M3411 1670 c0 -8 4 -24 9 -35 l9 -20 0 20 c0 11 -4 27 -9 35 -9 13
-10 13 -9 0z"/>
<path d="M3535 1670 c-4 -6 -5 -27 -4 -48 2 -24 -7 -58 -24 -96 -31 -67 -32
-73 -12 -56 49 41 99 210 62 210 -9 0 -19 -5 -22 -10z"/>
<path d="M2700 1640 c0 -5 5 -10 11 -10 5 0 7 5 4 10 -3 6 -8 10 -11 10 -2 0
-4 -4 -4 -10z"/>
<path d="M670 1626 c0 -2 8 -10 18 -17 15 -13 16 -12 3 4 -13 16 -21 21 -21
13z"/>
<path d="M612 1585 c2 -11 12 -24 23 -30 12 -6 19 -18 17 -31 -4 -30 31 -58
64 -50 l27 7 -39 40 c-21 21 -43 39 -50 39 -6 0 -19 10 -28 23 -15 20 -16 20
-14 2z"/>
<path d="M720 1568 c0 -9 7 -19 16 -22 15 -6 15 -4 3 11 -7 10 -15 20 -16 22
-2 2 -3 -3 -3 -11z"/>
<path d="M4050 1552 c0 -20 29 -52 48 -52 21 0 12 24 -19 48 -27 22 -29 22
-29 4z"/>
<path d="M1080 1506 c0 -9 5 -16 10 -16 6 0 10 4 10 9 0 6 -4 13 -10 16 -5 3
-10 -1 -10 -9z"/>
<path d="M1140 1466 c0 -12 -10 -16 -35 -16 -24 0 -35 -5 -35 -15 0 -17 -40
-29 -73 -23 -20 4 -23 0 -23 -26 0 -25 10 -40 49 -73 47 -40 51 -41 106 -37
31 2 69 9 84 15 27 12 28 14 22 63 -4 33 -16 63 -34 86 -31 38 -61 51 -61 26z"/>
<path d="M885 1430 c3 -5 11 -10 16 -10 6 0 7 5 4 10 -3 6 -11 10 -16 10 -6 0
-7 -4 -4 -10z"/>
<path d="M3870 1270 c0 -5 6 -10 13 -11 6 -1 27 -2 45 -4 18 -1 41 -10 50 -18
23 -21 72 -33 72 -17 0 30 -47 53 -113 57 -41 2 -67 -1 -67 -7z"/>
<path d="M4121 1188 c0 -13 4 -32 8 -42 7 -18 8 -18 14 -3 6 17 -7 67 -18 67
-3 0 -5 -10 -4 -22z"/>
<path d="M2562 1180 c-6 -11 -8 -21 -3 -24 9 -6 51 21 51 32 0 16 -37 9 -48
-8z"/>
<path d="M3020 1160 c-12 -8 -12 -10 5 -10 11 0 27 5 35 10 12 8 12 10 -5 10
-11 0 -27 -5 -35 -10z"/>
<path d="M2976 1138 c4 -6 -1 -8 -15 -3 -12 3 -36 2 -54 -4 -31 -10 -75 -20
-107 -24 -8 -2 -29 -10 -46 -19 -16 -9 -64 -29 -105 -43 -109 -39 -110 -40
-103 -22 3 8 1 18 -5 21 -17 11 -32 -32 -25 -69 4 -23 2 -35 -5 -35 -6 0 -11
-4 -11 -10 0 -23 33 -7 80 40 57 56 70 61 70 25 0 -27 9 -32 28 -13 9 9 12 9
12 0 0 -7 3 -11 8 -11 17 3 32 -2 32 -10 0 -5 -9 -7 -20 -4 -15 4 -20 0 -21
-13 0 -18 -1 -18 -9 1 -7 16 -9 17 -9 3 -1 -9 -5 -20 -11 -23 -6 -3 -8 2 -5
12 4 13 2 12 -5 -3 -7 -13 -30 -25 -61 -33 -59 -15 -55 -31 7 -31 43 0 120 31
107 44 -3 3 -1 6 6 6 7 0 19 7 27 15 9 8 24 15 34 15 10 0 21 4 24 9 4 5 -3 7
-14 4 -14 -4 -20 0 -20 11 0 9 -7 19 -15 22 -23 9 1 34 32 34 14 0 21 4 18 10
-11 18 11 11 29 -9 14 -15 26 -18 59 -14 23 3 51 12 62 19 27 19 54 17 99 -7
21 -11 45 -18 54 -14 13 5 12 2 -3 -15 -10 -11 -13 -20 -7 -20 7 0 12 4 12 9
0 5 17 12 37 16 28 5 40 3 49 -9 13 -18 59 -22 69 -6 4 7 -2 9 -17 5 -24 -5
-61 18 -69 44 -6 18 -69 21 -69 4 0 -7 -8 -13 -17 -13 -13 0 -14 3 -5 12 20
20 14 38 -13 38 -29 0 -30 3 -9 34 10 16 12 26 5 31 -6 3 -11 1 -11 -6 0 -7
-8 -9 -22 -5 -48 14 -58 15 -52 4z"/>
<path d="M3610 1121 c0 -11 -4 -23 -10 -26 -16 -10 -12 -23 6 -21 9 0 19 -5
22 -13 3 -8 0 -11 -6 -7 -6 4 -20 -2 -31 -13 -11 -11 -21 -17 -24 -15 -2 2 -1
-12 2 -32 5 -29 14 -41 41 -55 81 -44 147 -6 120 69 -17 48 -86 137 -93 120
-4 -10 -6 -10 -6 0 -2 20 -21 14 -21 -7z m60 -151 c0 -5 -10 -10 -22 -10 -19
0 -20 2 -8 10 19 13 30 13 30 0z"/>
<path d="M3170 1100 c0 -5 5 -10 11 -10 5 0 7 5 4 10 -3 6 -8 10 -11 10 -2 0
-4 -4 -4 -10z"/>
<path d="M2215 1066 c-20 -15 -20 -15 3 -16 12 0 22 -5 22 -12 0 -6 2 -9 5 -6
3 3 2 15 -3 27 -7 20 -9 20 -27 7z"/>
<path d="M3286 1025 c-16 -25 -16 -25 11 -27 16 -1 36 -2 45 -2 9 0 15 -3 12
-8 -3 -4 2 -8 10 -8 10 0 16 9 16 24 0 28 -3 31 -46 40 -26 6 -34 3 -48 -19z"/>
<path d="M2190 1030 c0 -13 28 -25 38 -16 3 4 0 11 -8 16 -20 13 -30 12 -30 0z"/>
<path d="M2270 1030 c0 -6 4 -8 10 -5 18 11 44 -13 45 -41 0 -15 7 -29 15 -32
12 -4 13 -2 3 9 -7 9 -11 28 -10 44 2 25 -2 29 -30 32 -20 3 -33 0 -33 -7z"/>
<path d="M3250 1030 c-20 -12 -10 -19 14 -10 11 3 15 9 10 13 -6 3 -16 2 -24
-3z"/>
<path d="M1670 1005 c-17 -20 -4 -35 31 -35 32 0 37 11 13 34 -19 20 -28 20
-44 1z"/>
<path d="M3050 995 c-10 -12 -10 -15 4 -15 9 0 16 7 16 15 0 8 -2 15 -4 15 -2
0 -9 -7 -16 -15z"/>
<path d="M2800 993 c0 -5 4 -14 9 -21 11 -18 141 -21 160 -4 8 8 24 11 40 7
l26 -6 -22 16 c-17 12 -30 13 -65 6 -27 -6 -58 -7 -83 -1 -49 12 -65 12 -65 3z"/>
<path d="M2370 945 c0 -10 7 -15 18 -13 21 4 19 22 -2 26 -10 2 -16 -3 -16
-13z"/>
<path d="M2210 940 c-13 -8 -12 -10 3 -10 9 0 17 5 17 10 0 12 -1 12 -20 0z"/>
<path d="M2926 942 c-3 -6 3 -12 15 -15 12 -3 19 -1 16 6 -5 15 -24 20 -31 9z"/>
<path d="M2788 933 c7 -3 16 -2 19 1 4 3 -2 6 -13 5 -11 0 -14 -3 -6 -6z"/>
<path d="M3138 828 c-3 -15 -1 -32 3 -40 13 -21 18 -5 10 32 -7 34 -7 34 -13
8z"/>
<path d="M2293 824 c-8 -22 35 -60 55 -47 9 5 18 16 20 24 3 12 2 11 -7 -1 -8
-12 -11 -12 -17 3 -4 11 -13 16 -21 12 -11 -3 -13 -1 -9 10 3 8 1 15 -5 15 -5
0 -12 -7 -16 -16z"/>
<path d="M2670 795 c-11 -13 -10 -14 4 -9 9 3 16 10 16 15 0 13 -6 11 -20 -6z"/>
<path d="M3140 671 c0 -29 -4 -41 -15 -41 -9 0 -12 -6 -9 -15 4 -8 1 -15 -5
-15 -6 0 -11 8 -11 17 0 13 -3 14 -12 5 -8 -8 -8 -15 1 -26 10 -12 8 -17 -8
-26 -27 -14 -27 -30 -1 -23 43 11 100 139 70 158 -6 4 -10 -10 -10 -34z"/>
<path d="M3040 650 c-8 -5 -12 -11 -9 -14 2 -3 11 -1 19 4 8 5 12 11 9 14 -2
3 -11 1 -19 -4z"/>
<path d="M3050 580 c0 -5 5 -10 10 -10 6 0 10 5 10 10 0 6 -4 10 -10 10 -5 0
-10 -4 -10 -10z"/>
<path d="M3503 568 c2 -7 10 -30 18 -50 7 -21 17 -38 21 -38 4 0 8 2 8 4 0 10
-42 96 -47 96 -3 0 -3 -6 0 -12z"/>
</g>
</svg>
